<svg xmlns="http://www.w3.org/2000/svg" xml:space="preserve" width="24" height="24" style="shape-rendering:geometricPrecision;text-rendering:geometricPrecision;image-rendering:optimizeQuality;fill-rule:evenodd;clip-rule:evenodd"><defs><style>.str0,.str2,.str4,.str5{stroke:#2b2a29;stroke-width:2.36;stroke-miterlimit:22.9256}.str0,.str4,.str5{stroke:#000}.str4,.str5{stroke:#fefefe;stroke-width:.9}.str4{stroke:#2b2a29}.fil2,.fil3{fill:none}.fil2{fill-rule:nonzero}.fil4{fill:#2b2a29}.fil6,.fil7{fill:#fefefe;fill-rule:nonzero}.fil6{fill:#2b2a29}</style></defs><g id="Layer_x0020_1"><circle class="str0" cx="-10" cy="-24" r="9" style="fill:#000"/><path style="fill:#fff;fill-rule:nonzero" d="M-10.88-19v-4.15H-15v-1.73h4.12V-29h1.76v4.12H-5v1.73h-4.12V-19z"/><path id="1" class="fil2" style="stroke:#fff;stroke-width:.9;stroke-miterlimit:22.9256" d="M-10.88-19v-4.15H-15v-1.73h4.12V-29h1.76v4.12H-5v1.73h-4.12V-19z"/><circle class="fil3 str0" cx="12" cy="12" r="9"/><path class="fil3 str2" d="M150.06 9.07h11.8c.06 0 .1.04.1.1v15.68c0 .04-.02.07-.06.09-.04.01-.08.01-.1-.02l-5.03-4.64a.091.091 0 0 0-.12-.01l-6.53 4.69c-.03.02-.07.03-.11.01a.105.105 0 0 1-.05-.09V9.17c0-.06.05-.1.1-.1z"/><path class="fil4 str2" d="M129.74 9.32h11.81c.05 0 .09.04.09.1v15.67c0 .04-.02.08-.05.09-.04.02-.08.01-.11-.01l-5.03-4.64a.091.091 0 0 0-.12-.01l-6.53 4.69c-.03.02-.07.02-.1.01a.107.107 0 0 1-.06-.09V9.42c0-.06.05-.1.1-.1z"/><path class="fil3 str2" d="m154.98 28.63 1.65 5.35 5.36-.01-4.34 3.3 1.66 5.36-4.33-3.32-4.32 3.32 1.66-5.36-4.34-3.3 5.36.01z"/><path class="fil4 str2" d="m134.64 29.54 1.65 5.35 5.35-.01-4.33 3.3 1.66 5.35-4.33-3.31-4.32 3.31 1.66-5.35-4.34-3.3 5.36.01z"/><circle class="fil3 str2" cx="224.15" cy="-7.73" r="9"/><path class="fil4 str2" d="m227.15-7.73-3 1.5-3 1.5v-6l3 1.5z"/><circle class="fil4 str2" cx="200.65" cy="-6.73" r="9"/><path style="fill:#fefefe;stroke:#fefefe;stroke-width:2.36;stroke-miterlimit:22.9256" d="m203.65-6.73-3 1.5-3 1.5v-6l3 1.5z"/><circle class="fil3 str2" cx="224.65" cy="17.27" r="9"/><path class="fil6" d="M223.19 23.27v-7.43h-1.54v-1.12h1.54v-.91c0-.57.06-1 .19-1.28.16-.37.45-.68.88-.91.42-.23 1.01-.35 1.77-.35.49 0 1.03.05 1.62.15l-.26 1.27c-.36-.05-.7-.08-1.03-.08-.52 0-.9.09-1.12.28-.22.18-.32.53-.32 1.04v.79h2v1.12h-1.98v7.43h-1.75z"/><path class="fil2 str4" d="M223.19 23.27v-7.43h-1.54v-1.12h1.54v-.91c0-.57.06-1 .19-1.28.16-.37.45-.68.88-.91.42-.23 1.01-.35 1.77-.35.49 0 1.03.05 1.62.15l-.26 1.27c-.36-.05-.7-.08-1.03-.08-.52 0-.9.09-1.12.28-.22.18-.32.53-.32 1.04v.79h2v1.12h-1.98v7.43h-1.75z"/><circle class="fil4 str2" cx="201.97" cy="16.27" r="9"/><path class="fil7" d="M200.51 22.27v-7.43h-1.54v-1.12h1.54v-.91c0-.57.06-1 .18-1.28.17-.37.46-.67.88-.91.42-.23 1.01-.35 1.77-.35.49 0 1.03.05 1.63.15l-.26 1.27c-.37-.05-.71-.08-1.03-.08-.53 0-.9.09-1.12.28-.22.19-.33.53-.33 1.05v.78h2v1.12h-1.98v7.43h-1.74z"/><path class="fil2 str5" d="M200.51 22.27v-7.43h-1.54v-1.12h1.54v-.91c0-.57.06-1 .18-1.28.17-.37.46-.67.88-.91.42-.23 1.01-.35 1.77-.35.49 0 1.03.05 1.63.15l-.26 1.27c-.37-.05-.71-.08-1.03-.08-.53 0-.9.09-1.12.28-.22.19-.33.53-.33 1.05v.78h2v1.12h-1.98v7.43h-1.74z"/><path class="fil3 str2" d="M216.65 29.27h16c.55 0 1 .45 1 1v16.01c0 .55-.45 1-1 1h-16c-.55 0-1-.45-1-1V30.27c0-.55.45-1 1-1z"/><path class="fil6" d="M223.2 44.28v-7.44h-1.55v-1.12h1.55v-.91c0-.57.06-1 .18-1.27.17-.38.46-.68.88-.92.42-.23 1.01-.35 1.77-.35.49 0 1.03.05 1.62.15l-.26 1.27c-.36-.05-.7-.08-1.02-.08-.53 0-.9.09-1.12.28-.22.19-.33.54-.33 1.05v.78h2v1.12h-1.98v7.44h-1.74z"/><path class="fil2 str4" d="M223.2 44.28v-7.44h-1.55v-1.12h1.55v-.91c0-.57.06-1 .18-1.27.17-.38.46-.68.88-.92.42-.23 1.01-.35 1.77-.35.49 0 1.03.05 1.62.15l-.26 1.27c-.36-.05-.7-.08-1.02-.08-.53 0-.9.09-1.12.28-.22.19-.33.54-.33 1.05v.78h2v1.12h-1.98v7.44h-1.74z"/><path class="fil4" d="M193.7 30h16c.55 0 1 .45 1 1v16c0 .55-.45 1-1 1h-16c-.55 0-1-.45-1-1V31c0-.55.45-1 1-1z" style="stroke:#2b2a29;stroke-width:2.36;stroke-miterlimit:22.9256"/><path class="fil7" d="M200.24 45v-7.43h-1.54v-1.12h1.54v-.91c0-.57.06-1 .18-1.28.17-.37.46-.68.88-.91.42-.23 1.01-.35 1.77-.35.49 0 1.04.05 1.63.15l-.26 1.27c-.36-.05-.7-.08-1.03-.08-.53 0-.9.09-1.12.28-.22.18-.33.53-.33 1.04v.79h2v1.12h-1.98V45h-1.74z"/><path class="fil2 str5" d="M200.24 45v-7.43h-1.54v-1.12h1.54v-.91c0-.57.06-1 .18-1.28.17-.37.46-.68.88-.91.42-.23 1.01-.35 1.77-.35.49 0 1.04.05 1.63.15l-.26 1.27c-.36-.05-.7-.08-1.03-.08-.53 0-.9.09-1.12.28-.22.18-.33.53-.33 1.04v.79h2v1.12h-1.98V45h-1.74z"/><path style="fill:#000;fill-rule:nonzero" d="M11.12 17v-4.14H7v-1.74h4.12V7h1.76v4.12H17v1.74h-4.12V17z"/><path class="fil2" style="stroke:#000;stroke-width:.9;stroke-miterlimit:22.9256" d="M11.12 17v-4.14H7v-1.74h4.12V7h1.76v4.12H17v1.74h-4.12V17z"/></g></svg>