<?xml version="1.0" encoding="UTF-8"?>
<!DOCTYPE svg PUBLIC "-//W3C//DTD SVG 1.1//EN" "http://www.w3.org/Graphics/SVG/1.1/DTD/svg11.dtd">
<!-- Creator: CorelDRAW 2018 -->
<svg xmlns="http://www.w3.org/2000/svg" xml:space="preserve" width="24px" height="24px" version="1.1" style="shape-rendering:geometricPrecision; text-rendering:geometricPrecision; image-rendering:optimizeQuality; fill-rule:evenodd; clip-rule:evenodd"
viewBox="0 0 24 24"
 xmlns:xlink="http://www.w3.org/1999/xlink">
 <defs>
  <style type="text/css">
   <![CDATA[
    .str3 {stroke:#FEFEFE;stroke-width:2.36;stroke-miterlimit:22.9256}
    .str6 {stroke:#2B2A29;stroke-width:2.36;stroke-miterlimit:22.9256}
    .str2 {stroke:#2B2A29;stroke-width:2.36;stroke-miterlimit:22.9256}
    .str0 {stroke:black;stroke-width:2.36;stroke-miterlimit:22.9256}
    .str5 {stroke:#FEFEFE;stroke-width:0.9;stroke-miterlimit:22.9256}
    .str4 {stroke:#2B2A29;stroke-width:0.9;stroke-miterlimit:22.9256}
    .str7 {stroke:black;stroke-width:0.9;stroke-miterlimit:22.9256}
    .str1 {stroke:white;stroke-width:0.9;stroke-miterlimit:22.9256}
    .fil3 {fill:none}
    .fil2 {fill:none;fill-rule:nonzero}
    .fil5 {fill:#FEFEFE}
    .fil4 {fill:#2B2A29}
    .fil0 {fill:black}
    .fil7 {fill:#FEFEFE;fill-rule:nonzero}
    .fil6 {fill:#2B2A29;fill-rule:nonzero}
    .fil8 {fill:black;fill-rule:nonzero}
    .fil1 {fill:white;fill-rule:nonzero}
   ]]>
  </style>
 </defs>
 <g id="Layer_x0020_1">
  <metadata id="CorelCorpID_0Corel-Layer"/>
  <circle class="fil0 str0" cx="-15.63" cy="83.01" r="9"/>
  <polygon class="fil1" points="-16.51,88.01 -16.51,83.86 -20.63,83.86 -20.63,82.13 -16.51,82.13 -16.51,78.01 -14.75,78.01 -14.75,82.13 -10.63,82.13 -10.63,83.86 -14.75,83.86 -14.75,88.01 "/>
  <polygon id="1" class="fil2 str1" points="-16.51,88.01 -16.51,83.86 -20.63,83.86 -20.63,82.13 -16.51,82.13 -16.51,78.01 -14.75,78.01 -14.75,82.13 -10.63,82.13 -10.63,83.86 -14.75,83.86 -14.75,88.01 "/>
  <circle class="fil3 str0" cx="11" cy="83.01" r="9"/>
  <path class="fil3 str0" d="M6.1 4.5l11.8 0c0.06,0 0.1,0.04 0.1,0.1l0 15.68c0,0.04 -0.02,0.07 -0.06,0.09 -0.04,0.01 -0.08,0.01 -0.11,-0.02l-5.02 -4.64c-0.04,-0.03 -0.09,-0.04 -0.12,-0.01l-6.53 4.69c-0.03,0.02 -0.07,0.03 -0.11,0.01 -0.03,-0.02 -0.05,-0.05 -0.05,-0.09 0,-5.24 0,-10.48 0,-15.71 0,-0.06 0.04,-0.1 0.1,-0.1z"/>
  <path class="fil0 str0" d="M26.29 69.8l11.8 0c0.06,0 0.1,0.04 0.1,0.1l0 15.67c0,0.04 -0.02,0.08 -0.06,0.09 -0.03,0.02 -0.07,0.01 -0.1,-0.01l-5.03 -4.64c-0.03,-0.04 -0.08,-0.04 -0.12,-0.01l-6.53 4.69c-0.03,0.02 -0.07,0.02 -0.1,0 -0.04,-0.01 -0.06,-0.05 -0.06,-0.08 0,-5.24 0,-10.48 0,-15.71 0,-0.06 0.05,-0.1 0.1,-0.1z"/>
  <polygon class="fil3 str2" points="154.98,28.63 156.63,33.98 161.99,33.97 157.65,37.27 159.31,42.63 154.98,39.31 150.66,42.63 152.32,37.27 147.98,33.97 153.34,33.98 "/>
  <polygon class="fil4 str2" points="134.64,29.54 136.29,34.89 141.64,34.88 137.31,38.18 138.97,43.53 134.64,40.22 130.32,43.53 131.98,38.18 127.64,34.88 133,34.89 "/>
  <circle class="fil3 str2" cx="224.15" cy="-7.73" r="9"/>
  <polygon class="fil4 str2" points="227.15,-7.73 224.15,-6.23 221.15,-4.73 221.15,-7.73 221.15,-10.73 224.15,-9.23 "/>
  <circle class="fil4 str2" cx="200.65" cy="-6.73" r="9"/>
  <polygon class="fil5 str3" points="203.65,-6.73 200.65,-5.23 197.65,-3.73 197.65,-6.73 197.65,-9.73 200.65,-8.23 "/>
  <circle class="fil3 str2" cx="224.65" cy="17.27" r="9"/>
  <path class="fil6" d="M223.19 23.27l0 -7.43 -1.54 0 0 -1.12 1.54 0 0 -0.91c0,-0.57 0.06,-1 0.19,-1.28 0.16,-0.37 0.45,-0.68 0.88,-0.91 0.42,-0.23 1.01,-0.35 1.77,-0.35 0.49,0 1.03,0.05 1.62,0.15l-0.26 1.27c-0.36,-0.05 -0.7,-0.08 -1.03,-0.08 -0.52,0 -0.9,0.09 -1.12,0.28 -0.22,0.18 -0.32,0.53 -0.32,1.04l0 0.79 2 0 0 1.12 -1.98 0 0 7.43 -1.75 0z"/>
  <path id="1" class="fil2 str4" d="M223.19 23.27l0 -7.43 -1.54 0 0 -1.12 1.54 0 0 -0.91c0,-0.57 0.06,-1 0.19,-1.28 0.16,-0.37 0.45,-0.68 0.88,-0.91 0.42,-0.23 1.01,-0.35 1.77,-0.35 0.49,0 1.03,0.05 1.62,0.15l-0.26 1.27c-0.36,-0.05 -0.7,-0.08 -1.03,-0.08 -0.52,0 -0.9,0.09 -1.12,0.28 -0.22,0.18 -0.32,0.53 -0.32,1.04l0 0.79 2 0 0 1.12 -1.98 0 0 7.43 -1.75 0z"/>
  <circle class="fil4 str2" cx="201.97" cy="16.27" r="9"/>
  <path class="fil7" d="M200.51 22.27l0 -7.43 -1.54 0 0 -1.12 1.54 0 0 -0.91c0,-0.57 0.06,-1 0.18,-1.28 0.17,-0.37 0.46,-0.67 0.88,-0.91 0.42,-0.23 1.01,-0.35 1.77,-0.35 0.49,0 1.03,0.05 1.63,0.15l-0.26 1.27c-0.37,-0.05 -0.71,-0.08 -1.03,-0.08 -0.53,0 -0.9,0.09 -1.12,0.28 -0.22,0.19 -0.33,0.53 -0.33,1.05l0 0.78 2 0 0 1.12 -1.98 0 0 7.43 -1.74 0z"/>
  <path id="1" class="fil2 str5" d="M200.51 22.27l0 -7.43 -1.54 0 0 -1.12 1.54 0 0 -0.91c0,-0.57 0.06,-1 0.18,-1.28 0.17,-0.37 0.46,-0.67 0.88,-0.91 0.42,-0.23 1.01,-0.35 1.77,-0.35 0.49,0 1.03,0.05 1.63,0.15l-0.26 1.27c-0.37,-0.05 -0.71,-0.08 -1.03,-0.08 -0.53,0 -0.9,0.09 -1.12,0.28 -0.22,0.19 -0.33,0.53 -0.33,1.05l0 0.78 2 0 0 1.12 -1.98 0 0 7.43 -1.74 0z"/>
  <path class="fil3 str2" d="M216.65 29.27l16 0c0.55,0 1,0.45 1,1l0 16.01c0,0.55 -0.45,1 -1,1l-16 0c-0.55,0 -1,-0.45 -1,-1l0 -16.01c0,-0.55 0.45,-1 1,-1z"/>
  <path class="fil6" d="M223.2 44.28l0 -7.44 -1.55 0 0 -1.12 1.55 0 0 -0.91c0,-0.57 0.06,-1 0.18,-1.27 0.17,-0.38 0.46,-0.68 0.88,-0.92 0.42,-0.23 1.01,-0.35 1.77,-0.35 0.49,0 1.03,0.05 1.62,0.15l-0.26 1.27c-0.36,-0.05 -0.7,-0.08 -1.02,-0.08 -0.53,0 -0.9,0.09 -1.12,0.28 -0.22,0.19 -0.33,0.54 -0.33,1.05l0 0.78 2 0 0 1.12 -1.98 0 0 7.44 -1.74 0z"/>
  <path id="1" class="fil2 str4" d="M223.2 44.28l0 -7.44 -1.55 0 0 -1.12 1.55 0 0 -0.91c0,-0.57 0.06,-1 0.18,-1.27 0.17,-0.38 0.46,-0.68 0.88,-0.92 0.42,-0.23 1.01,-0.35 1.77,-0.35 0.49,0 1.03,0.05 1.62,0.15l-0.26 1.27c-0.36,-0.05 -0.7,-0.08 -1.02,-0.08 -0.53,0 -0.9,0.09 -1.12,0.28 -0.22,0.19 -0.33,0.54 -0.33,1.05l0 0.78 2 0 0 1.12 -1.98 0 0 7.44 -1.74 0z"/>
  <path class="fil4 str6" d="M193.7 30l16 0c0.55,0 1,0.45 1,1l0 16c0,0.55 -0.45,1 -1,1l-16 0c-0.55,0 -1,-0.45 -1,-1l0 -16c0,-0.55 0.45,-1 1,-1z"/>
  <path class="fil7" d="M200.24 45l0 -7.43 -1.54 0 0 -1.12 1.54 0 0 -0.91c0,-0.57 0.06,-1 0.18,-1.28 0.17,-0.37 0.46,-0.68 0.88,-0.91 0.42,-0.23 1.01,-0.35 1.77,-0.35 0.49,0 1.04,0.05 1.63,0.15l-0.26 1.27c-0.36,-0.05 -0.7,-0.08 -1.03,-0.08 -0.53,0 -0.9,0.09 -1.12,0.28 -0.22,0.18 -0.33,0.53 -0.33,1.04l0 0.79 2 0 0 1.12 -1.98 0 0 7.43 -1.74 0z"/>
  <path id="1" class="fil2 str5" d="M200.24 45l0 -7.43 -1.54 0 0 -1.12 1.54 0 0 -0.91c0,-0.57 0.06,-1 0.18,-1.28 0.17,-0.37 0.46,-0.68 0.88,-0.91 0.42,-0.23 1.01,-0.35 1.77,-0.35 0.49,0 1.04,0.05 1.63,0.15l-0.26 1.27c-0.36,-0.05 -0.7,-0.08 -1.03,-0.08 -0.53,0 -0.9,0.09 -1.12,0.28 -0.22,0.18 -0.33,0.53 -0.33,1.04l0 0.79 2 0 0 1.12 -1.98 0 0 7.43 -1.74 0z"/>
  <polygon class="fil8" points="10.12,88.01 10.12,83.86 6,83.86 6,82.13 10.12,82.13 10.12,78.01 11.88,78.01 11.88,82.13 16,82.13 16,83.86 11.88,83.86 11.88,88.01 "/>
  <polygon id="1" class="fil2 str7" points="10.12,88.01 10.12,83.86 6,83.86 6,82.13 10.12,82.13 10.12,78.01 11.88,78.01 11.88,82.13 16,82.13 16,83.86 11.88,83.86 11.88,88.01 "/>
 </g>
</svg>
