<svg xmlns="http://www.w3.org/2000/svg" xml:space="preserve" width="24" height="24" style="shape-rendering:geometricPrecision;text-rendering:geometricPrecision;image-rendering:optimizeQuality;fill-rule:evenodd;clip-rule:evenodd"><defs><style>.str0,.str1,.str2,.str4{stroke:#2b2a29;stroke-width:2.36;stroke-miterlimit:22.9256}.str0,.str1,.str4{stroke:#000}.str1,.str4{stroke-width:.9}.str1{stroke:#fff}.fil2,.fil3{fill:none}.fil2{fill-rule:nonzero}.fil4{fill:#2b2a29}.fil0{fill:#000}.fil1,.fil6{fill:#000;fill-rule:nonzero}.fil1{fill:#fff}</style></defs><g id="Layer_x0020_1"><circle class="fil0 str0" cx="-13.74" cy="-76.46" r="9"/><path class="fil1" d="M-14.62-71.46v-4.15h-4.12v-1.73h4.12v-4.12h1.76v4.12h4.12v1.73h-4.12v4.15z"/><path id="1" class="fil2 str1" d="M-14.62-71.46v-4.15h-4.12v-1.73h4.12v-4.12h1.76v4.12h4.12v1.73h-4.12v4.15z"/><circle class="fil3 str0" cx="12.89" cy="-76.46" r="9"/><path class="fil3 str0" d="M46.99-84.42H58.8c.05 0 .09.05.09.1v15.68c0 .04-.02.07-.05.09-.04.02-.08.01-.11-.02l-5.03-4.64c-.03-.03-.08-.03-.12 0l-6.53 4.68c-.03.03-.07.03-.1.01-.04-.02-.06-.05-.06-.09v-15.71c0-.05.05-.1.1-.1z"/><path class="fil0 str0" d="M28.18-84.42h11.8c.06 0 .1.05.1.1v15.68c0 .04-.02.07-.06.09-.03.02-.07.01-.1-.02l-5.03-4.64c-.03-.03-.08-.03-.12 0l-6.53 4.68c-.03.03-.07.03-.1.01-.04-.02-.06-.05-.06-.09v-15.71c0-.05.05-.1.1-.1z"/><path class="fil3 str2" d="m154.98 28.63 1.65 5.35 5.36-.01-4.34 3.3 1.66 5.36-4.33-3.32-4.32 3.32 1.66-5.36-4.34-3.3 5.36.01z"/><path class="fil4 str2" d="m134.64 29.54 1.65 5.35 5.35-.01-4.33 3.3 1.66 5.35-4.33-3.31-4.32 3.31 1.66-5.35-4.34-3.3 5.36.01z"/><circle class="fil3 str2" cx="224.15" cy="-7.73" r="9"/><path class="fil4 str2" d="m227.15-7.73-3 1.5-3 1.5v-6l3 1.5z"/><circle class="fil4 str2" cx="200.65" cy="-6.73" r="9"/><path style="fill:#fefefe;stroke:#fefefe;stroke-width:2.36;stroke-miterlimit:22.9256" d="m203.65-6.73-3 1.5-3 1.5v-6l3 1.5z"/><circle class="fil3 str0" cx="77.17" cy="-76.46" r="9"/><path class="fil6" d="M75.71-70.46v-7.44h-1.54v-1.12h1.54v-.9c0-.58.07-1 .19-1.28.17-.37.46-.68.88-.91.42-.24 1.01-.35 1.77-.35.49 0 1.03.05 1.62.14l-.26 1.27c-.36-.05-.7-.08-1.02-.08-.53 0-.91.1-1.13.28-.21.19-.32.54-.32 1.05v.78h2v1.12h-1.98v7.44h-1.75z"/><path class="fil2 str4" d="M75.71-70.46v-7.44h-1.54v-1.12h1.54v-.9c0-.58.07-1 .19-1.28.17-.37.46-.68.88-.91.42-.24 1.01-.35 1.77-.35.49 0 1.03.05 1.62.14l-.26 1.27c-.36-.05-.7-.08-1.02-.08-.53 0-.91.1-1.13.28-.21.19-.32.54-.32 1.05v.78h2v1.12h-1.98v7.44h-1.75z"/><circle class="fil0 str0" cx="12" cy="12" r="9"/><path class="fil1" d="M10.54 18v-7.43H9V9.45h1.54v-.91c0-.58.06-1 .18-1.28.17-.37.46-.68.89-.91.41-.23 1-.35 1.76-.35.49 0 1.04.05 1.63.14l-.26 1.27c-.36-.05-.7-.08-1.03-.08-.53 0-.9.1-1.12.29-.22.18-.33.53-.33 1.04v.79h2v1.12h-1.98V18h-1.74z"/><path class="fil2 str1" d="M10.54 18v-7.43H9V9.45h1.54v-.91c0-.58.06-1 .18-1.28.17-.37.46-.68.89-.91.41-.23 1-.35 1.76-.35.49 0 1.04.05 1.63.14l-.26 1.27c-.36-.05-.7-.08-1.03-.08-.53 0-.9.1-1.12.29-.22.18-.33.53-.33 1.04v.79h2v1.12h-1.98V18h-1.74z"/><path class="fil3 str2" d="M216.65 29.27h16c.55 0 1 .45 1 1v16.01c0 .55-.45 1-1 1h-16c-.55 0-1-.45-1-1V30.27c0-.55.45-1 1-1z"/><path d="M223.2 44.28v-7.44h-1.55v-1.12h1.55v-.91c0-.57.06-1 .18-1.27.17-.38.46-.68.88-.92.42-.23 1.01-.35 1.77-.35.49 0 1.03.05 1.62.15l-.26 1.27c-.36-.05-.7-.08-1.02-.08-.53 0-.9.09-1.12.28-.22.19-.33.54-.33 1.05v.78h2v1.12h-1.98v7.44h-1.74z" style="fill:#2b2a29;fill-rule:nonzero"/><path class="fil2" d="M223.2 44.28v-7.44h-1.55v-1.12h1.55v-.91c0-.57.06-1 .18-1.27.17-.38.46-.68.88-.92.42-.23 1.01-.35 1.77-.35.49 0 1.03.05 1.62.15l-.26 1.27c-.36-.05-.7-.08-1.02-.08-.53 0-.9.09-1.12.28-.22.19-.33.54-.33 1.05v.78h2v1.12h-1.98v7.44h-1.74z" style="stroke:#2b2a29;stroke-width:.9;stroke-miterlimit:22.9256"/><path class="fil4" d="M193.7 30h16c.55 0 1 .45 1 1v16c0 .55-.45 1-1 1h-16c-.55 0-1-.45-1-1V31c0-.55.45-1 1-1z" style="stroke:#2b2a29;stroke-width:2.36;stroke-miterlimit:22.9256"/><path d="M200.24 45v-7.43h-1.54v-1.12h1.54v-.91c0-.57.06-1 .18-1.28.17-.37.46-.68.88-.91.42-.23 1.01-.35 1.77-.35.49 0 1.04.05 1.63.15l-.26 1.27c-.36-.05-.7-.08-1.03-.08-.53 0-.9.09-1.12.28-.22.18-.33.53-.33 1.04v.79h2v1.12h-1.98V45h-1.74z" style="fill:#fefefe;fill-rule:nonzero"/><path class="fil2" d="M200.24 45v-7.43h-1.54v-1.12h1.54v-.91c0-.57.06-1 .18-1.28.17-.37.46-.68.88-.91.42-.23 1.01-.35 1.77-.35.49 0 1.04.05 1.63.15l-.26 1.27c-.36-.05-.7-.08-1.03-.08-.53 0-.9.09-1.12.28-.22.18-.33.53-.33 1.04v.79h2v1.12h-1.98V45h-1.74z" style="stroke:#fefefe;stroke-width:.9;stroke-miterlimit:22.9256"/><path class="fil6" d="M12.01-71.46v-4.15H7.89v-1.73h4.12v-4.12h1.76v4.12h4.12v1.73h-4.12v4.15z"/><path class="fil2 str4" d="M12.01-71.46v-4.15H7.89v-1.73h4.12v-4.12h1.76v4.12h4.12v1.73h-4.12v4.15z"/></g></svg>