<svg xmlns="http://www.w3.org/2000/svg" xml:space="preserve" width="24" height="24" style="shape-rendering:geometricPrecision;text-rendering:geometricPrecision;image-rendering:optimizeQuality;fill-rule:evenodd;clip-rule:evenodd"><defs><style>.str0,.str1,.str2,.str4{stroke:#2b2a29;stroke-width:2.36;stroke-miterlimit:22.9256}.str0,.str1,.str4{stroke:#000}.str1,.str4{stroke-width:.9}.str1{stroke:#fff}.fil2,.fil3{fill:none}.fil2{fill-rule:nonzero}.fil0{fill:#000}.fil1,.fil6{fill:#000;fill-rule:nonzero}.fil1{fill:#fff}</style></defs><g id="Layer_x0020_1"><circle class="fil0 str0" cx="-13.74" cy="-76.46" r="9"/><path class="fil1" d="M-14.62-71.46v-4.15h-4.12v-1.73h4.12v-4.12h1.76v4.12h4.12v1.73h-4.12v4.15z"/><path id="1" class="fil2 str1" d="M-14.62-71.46v-4.15h-4.12v-1.73h4.12v-4.12h1.76v4.12h4.12v1.73h-4.12v4.15z"/><circle class="fil3 str0" cx="9" cy="-76.46" r="9"/><path class="fil3 str0" d="M43.1-84.42h11.8c.06 0 .1.05.1.1v15.68c0 .04-.02.07-.06.09-.03.02-.07.01-.1-.02l-5.03-4.64c-.03-.03-.08-.03-.12 0l-6.53 4.68c-.03.03-.07.03-.1.01-.04-.02-.06-.05-.06-.09v-15.71c0-.05.05-.1.1-.1z"/><path class="fil0 str0" d="M24.29-84.42h11.8c.06 0 .1.05.1.1v15.68c0 .04-.02.07-.06.09-.04.02-.08.01-.11-.02L31-73.21a.091.091 0 0 0-.12 0l-6.53 4.68c-.03.03-.07.03-.11.01a.105.105 0 0 1-.05-.09v-15.71c0-.05.05-.1.1-.1z"/><path class="fil3 str2" d="m154.98 28.63 1.65 5.35 5.36-.01-4.34 3.3 1.66 5.36-4.33-3.32-4.32 3.32 1.66-5.36-4.34-3.3 5.36.01z"/><path class="str2" style="fill:#2b2a29" d="m134.64 29.54 1.65 5.35 5.35-.01-4.33 3.3 1.66 5.35-4.33-3.31-4.32 3.31 1.66-5.35-4.34-3.3 5.36.01z"/><circle class="fil3 str0" cx="136.12" cy="-76.46" r="9"/><path class="fil0 str0" d="m139.12-76.46-3 1.5-3 1.5v-6l3 1.5z"/><circle class="fil0 str0" cx="114.12" cy="-76.46" r="9"/><path style="fill:#fff;stroke:#fff;stroke-width:2.36;stroke-miterlimit:22.9256" d="m117.12-76.46-3 1.5-3 1.5v-6l3 1.5z"/><circle class="fil3 str0" cx="69.29" cy="-76.46" r="9"/><path class="fil6" d="M67.84-70.46v-7.44h-1.55v-1.12h1.55v-.9c0-.58.06-1 .18-1.28.17-.37.46-.68.88-.91.42-.24 1.01-.35 1.77-.35.49 0 1.03.05 1.62.14l-.26 1.27c-.36-.05-.7-.08-1.02-.08-.53 0-.9.1-1.12.28-.22.19-.33.54-.33 1.05v.78h2v1.12h-1.98v7.44h-1.74z"/><path class="fil2 str4" d="M67.84-70.46v-7.44h-1.55v-1.12h1.55v-.9c0-.58.06-1 .18-1.28.17-.37.46-.68.88-.91.42-.24 1.01-.35 1.77-.35.49 0 1.03.05 1.62.14l-.26 1.27c-.36-.05-.7-.08-1.02-.08-.53 0-.9.1-1.12.28-.22.19-.33.54-.33 1.05v.78h2v1.12h-1.98v7.44h-1.74z"/><circle class="fil0 str0" cx="92.12" cy="-76.46" r="9"/><path class="fil1" d="M90.66-70.46v-7.44h-1.54v-1.12h1.54v-.9c0-.58.06-1 .18-1.28.17-.37.46-.68.88-.91.42-.24 1.01-.35 1.77-.35.49 0 1.03.05 1.63.14l-.26 1.27c-.37-.05-.71-.08-1.03-.08-.53 0-.9.1-1.12.28-.22.19-.33.54-.33 1.05v.78h2v1.12H92.4v7.44h-1.74z"/><path class="fil2 str1" d="M90.66-70.46v-7.44h-1.54v-1.12h1.54v-.9c0-.58.06-1 .18-1.28.17-.37.46-.68.88-.91.42-.24 1.01-.35 1.77-.35.49 0 1.03.05 1.63.14l-.26 1.27c-.37-.05-.71-.08-1.03-.08-.53 0-.9.1-1.12.28-.22.19-.33.54-.33 1.05v.78h2v1.12H92.4v7.44h-1.74z"/><path class="fil3 str0" d="M4 3h16c.55 0 1 .45 1 1v16c0 .55-.45 1-1 1H4c-.55 0-1-.45-1-1V4c0-.55.45-1 1-1z"/><path class="fil6" d="M10.54 18v-7.43H9V9.45h1.54v-.91c0-.58.06-1 .19-1.28.16-.37.45-.68.88-.91.42-.23 1.01-.35 1.76-.35.5 0 1.04.05 1.63.14l-.26 1.27c-.36-.05-.7-.08-1.03-.08-.52 0-.9.1-1.12.29-.22.18-.33.53-.33 1.04v.79h2v1.12h-1.98V18h-1.74z"/><path class="fil2 str4" d="M10.54 18v-7.43H9V9.45h1.54v-.91c0-.58.06-1 .19-1.28.16-.37.45-.68.88-.91.42-.23 1.01-.35 1.76-.35.5 0 1.04.05 1.63.14l-.26 1.27c-.36-.05-.7-.08-1.03-.08-.52 0-.9.1-1.12.29-.22.18-.33.53-.33 1.04v.79h2v1.12h-1.98V18h-1.74z"/><path class="fil0 str0" d="M151.01-85.46h16.01c.55 0 1 .45 1 1v16c0 .55-.45 1-1 1h-16.01c-.55 0-1-.45-1-1v-16c0-.55.45-1 1-1z"/><path class="fil1" d="M157.56-70.46v-7.44h-1.55v-1.12h1.55v-.9c0-.58.06-1 .18-1.28.17-.37.46-.68.88-.91.42-.24 1.01-.35 1.77-.35.49 0 1.03.05 1.63.14l-.27 1.27c-.36-.05-.7-.08-1.02-.08-.53 0-.9.1-1.12.28-.22.19-.33.54-.33 1.05v.78h2v1.12h-1.98v7.44h-1.74z"/><path class="fil2 str1" d="M157.56-70.46v-7.44h-1.55v-1.12h1.55v-.9c0-.58.06-1 .18-1.28.17-.37.46-.68.88-.91.42-.24 1.01-.35 1.77-.35.49 0 1.03.05 1.63.14l-.27 1.27c-.36-.05-.7-.08-1.02-.08-.53 0-.9.1-1.12.28-.22.19-.33.54-.33 1.05v.78h2v1.12h-1.98v7.44h-1.74z"/><path class="fil6" d="M8.12-71.46v-4.15H4v-1.73h4.12v-4.12h1.76v4.12H14v1.73H9.88v4.15z"/><path class="fil2 str4" d="M8.12-71.46v-4.15H4v-1.73h4.12v-4.12h1.76v4.12H14v1.73H9.88v4.15z"/></g></svg>