<svg xmlns="http://www.w3.org/2000/svg" width="24" height="24"><path d="M4.602 2.01a1.451 1.451 0 0 0-.344.002c-.019.002-.036 0-.055.004a1 1 0 0 0-.385.115 1 1 0 0 0-.205.144A1.601 1.601 0 0 0 3 3.504v17.088c0 .432.206.983.701 1.252.495.268 1.056.146 1.424-.076a1 1 0 0 0 .002-.002c-.06.036.276-.16.701-.4l1.715-.973c1.4-.793 3.238-1.832 5.08-2.873 1.842-1.042 3.687-2.083 5.096-2.881l1.732-.983c.432-.245.645-.366.776-.445.388-.235.78-.69.773-1.275-.008-.586-.402-1.014-.775-1.225A20765.387 20765.387 0 0 1 7.713 3.635L6 2.662c-.426-.242-.747-.428-.715-.408a1 1 0 0 0-.002 0 1.764 1.764 0 0 0-.681-.244zM5 5.35l5.756 6.607L5 18.567V5.35zm3.596 1.084 3.177 1.796 1.493.844-1.184 1.36-3.486-4zm6.445 3.642 3.338 1.887c-.426.242-.976.556-1.647.935l-1.683.954a1 1 0 0 0-.063-.084l-1.578-1.811 1.578-1.812a1 1 0 0 0 .055-.069zm-2.959 3.404 1.195 1.372-1.638.927-3.073 1.739 3.516-4.038z"/></svg>