<?xml version="1.0" encoding="UTF-8"?>
<!DOCTYPE svg PUBLIC "-//W3C//DTD SVG 1.1//EN" "http://www.w3.org/Graphics/SVG/1.1/DTD/svg11.dtd">
<!-- Creator: CorelDRAW 2018 -->
<svg xmlns="http://www.w3.org/2000/svg" xml:space="preserve" width="24px" height="24px" version="1.1" style="shape-rendering:geometricPrecision; text-rendering:geometricPrecision; image-rendering:optimizeQuality; fill-rule:evenodd; clip-rule:evenodd"
viewBox="0 0 24 24"
 xmlns:xlink="http://www.w3.org/1999/xlink">
 <defs>
  <style type="text/css">
   <![CDATA[
    .str4 {stroke:black;stroke-width:2.36;stroke-miterlimit:22.9256}
    .str0 {stroke:black;stroke-width:2.36;stroke-miterlimit:22.9256}
    .str2 {stroke:white;stroke-width:2.36;stroke-miterlimit:22.9256}
    .str3 {stroke:black;stroke-width:0.9;stroke-miterlimit:22.9256}
    .str1 {stroke:white;stroke-width:0.9;stroke-miterlimit:22.9256}
    .fil3 {fill:none}
    .fil2 {fill:none;fill-rule:nonzero}
    .fil0 {fill:black}
    .fil6 {fill:#050505}
    .fil4 {fill:white}
    .fil5 {fill:black;fill-rule:nonzero}
    .fil1 {fill:white;fill-rule:nonzero}
   ]]>
  </style>
   <clipPath id="id0">
    <rect x="-470.1" y="-1079.23" width="512.05" height="512.05"/>
   </clipPath>
 </defs>
 <g id="Layer_x0020_1">
  <metadata id="CorelCorpID_0Corel-Layer"/>
  <circle class="fil0 str0" cx="-13.74" cy="-76.46" r="9"/>
  <polygon class="fil1" points="-14.62,-71.46 -14.62,-75.61 -18.74,-75.61 -18.74,-77.34 -14.62,-77.34 -14.62,-81.46 -12.86,-81.46 -12.86,-77.34 -8.74,-77.34 -8.74,-75.61 -12.86,-75.61 -12.86,-71.46 "/>
  <polygon id="1" class="fil2 str1" points="-14.62,-71.46 -14.62,-75.61 -18.74,-75.61 -18.74,-77.34 -14.62,-77.34 -14.62,-81.46 -12.86,-81.46 -12.86,-77.34 -8.74,-77.34 -8.74,-75.61 -12.86,-75.61 -12.86,-71.46 "/>
  <circle class="fil3 str0" cx="9" cy="-76.46" r="9"/>
  <path class="fil3 str0" d="M43.1 -84.42l11.8 0c0.06,0 0.1,0.05 0.1,0.1l0 15.68c0,0.04 -0.02,0.07 -0.06,0.09 -0.03,0.02 -0.07,0.01 -0.1,-0.02l-5.03 -4.64c-0.03,-0.03 -0.08,-0.03 -0.12,0l-6.53 4.68c-0.03,0.03 -0.07,0.03 -0.1,0.01 -0.04,-0.02 -0.06,-0.05 -0.06,-0.09 0,-5.23 0,-10.47 0,-15.71 0,-0.05 0.05,-0.1 0.1,-0.1z"/>
  <path class="fil0 str0" d="M24.29 -84.42l11.8 0c0.06,0 0.1,0.05 0.1,0.1l0 15.68c0,0.04 -0.02,0.07 -0.06,0.09 -0.04,0.02 -0.08,0.01 -0.11,-0.02l-5.02 -4.64c-0.03,-0.03 -0.09,-0.03 -0.12,0l-6.53 4.68c-0.03,0.03 -0.07,0.03 -0.11,0.01 -0.03,-0.02 -0.05,-0.05 -0.05,-0.09 0,-5.23 0,-10.47 0,-15.71 0,-0.05 0.05,-0.1 0.1,-0.1z"/>
  <polygon class="fil3 str0" points="222.68,-83.46 224.33,-78.1 229.68,-78.11 225.35,-74.81 227.01,-69.46 222.68,-72.78 218.36,-69.46 220.02,-74.81 215.68,-78.11 221.04,-78.1 "/>
  <circle class="fil3 str0" cx="136.12" cy="-76.46" r="9"/>
  <polygon class="fil0 str0" points="139.12,-76.46 136.12,-74.96 133.12,-73.46 133.12,-76.46 133.12,-79.46 136.12,-77.96 "/>
  <circle class="fil0 str0" cx="114.12" cy="-76.46" r="9"/>
  <polygon class="fil4 str2" points="117.12,-76.46 114.12,-74.96 111.12,-73.46 111.12,-76.46 111.12,-79.46 114.12,-77.96 "/>
  <circle class="fil3 str0" cx="69.29" cy="-76.46" r="9"/>
  <path class="fil5" d="M67.84 -70.46l0 -7.44 -1.55 0 0 -1.12 1.55 0 0 -0.9c0,-0.58 0.06,-1 0.18,-1.28 0.17,-0.37 0.46,-0.68 0.88,-0.91 0.42,-0.24 1.01,-0.35 1.77,-0.35 0.49,0 1.03,0.05 1.62,0.14l-0.26 1.27c-0.36,-0.05 -0.7,-0.08 -1.02,-0.08 -0.53,0 -0.9,0.1 -1.12,0.28 -0.22,0.19 -0.33,0.54 -0.33,1.05l0 0.78 2 0 0 1.12 -1.98 0 0 7.44 -1.74 0z"/>
  <path id="1" class="fil2 str3" d="M67.84 -70.46l0 -7.44 -1.55 0 0 -1.12 1.55 0 0 -0.9c0,-0.58 0.06,-1 0.18,-1.28 0.17,-0.37 0.46,-0.68 0.88,-0.91 0.42,-0.24 1.01,-0.35 1.77,-0.35 0.49,0 1.03,0.05 1.62,0.14l-0.26 1.27c-0.36,-0.05 -0.7,-0.08 -1.02,-0.08 -0.53,0 -0.9,0.1 -1.12,0.28 -0.22,0.19 -0.33,0.54 -0.33,1.05l0 0.78 2 0 0 1.12 -1.98 0 0 7.44 -1.74 0z"/>
  <circle class="fil0 str0" cx="92.12" cy="-76.46" r="9"/>
  <path class="fil1" d="M90.66 -70.46l0 -7.44 -1.54 0 0 -1.12 1.54 0 0 -0.9c0,-0.58 0.06,-1 0.18,-1.28 0.17,-0.37 0.46,-0.68 0.88,-0.91 0.42,-0.24 1.01,-0.35 1.77,-0.35 0.49,0 1.03,0.05 1.63,0.14l-0.26 1.27c-0.37,-0.05 -0.71,-0.08 -1.03,-0.08 -0.53,0 -0.9,0.1 -1.12,0.28 -0.22,0.19 -0.33,0.54 -0.33,1.05l0 0.78 2 0 0 1.12 -1.98 0 0 7.44 -1.74 0z"/>
  <path id="1" class="fil2 str1" d="M90.66 -70.46l0 -7.44 -1.54 0 0 -1.12 1.54 0 0 -0.9c0,-0.58 0.06,-1 0.18,-1.28 0.17,-0.37 0.46,-0.68 0.88,-0.91 0.42,-0.24 1.01,-0.35 1.77,-0.35 0.49,0 1.03,0.05 1.63,0.14l-0.26 1.27c-0.37,-0.05 -0.71,-0.08 -1.03,-0.08 -0.53,0 -0.9,0.1 -1.12,0.28 -0.22,0.19 -0.33,0.54 -0.33,1.05l0 0.78 2 0 0 1.12 -1.98 0 0 7.44 -1.74 0z"/>
  <path class="fil3 str0" d="M173.02 -85.46l16 0c0.55,0 1,0.45 1,1l0 16c0,0.55 -0.45,1 -1,1l-16 0c-0.55,0 -1,-0.45 -1,-1l0 -16c0,-0.55 0.45,-1 1,-1z"/>
  <path class="fil5" d="M179.56 -70.46l0 -7.44 -1.54 0 0 -1.12 1.54 0 0 -0.9c0,-0.58 0.06,-1 0.18,-1.28 0.17,-0.37 0.46,-0.68 0.88,-0.91 0.42,-0.24 1.01,-0.35 1.77,-0.35 0.49,0 1.03,0.05 1.63,0.14l-0.26 1.27c-0.37,-0.05 -0.71,-0.08 -1.03,-0.08 -0.53,0 -0.9,0.1 -1.12,0.28 -0.22,0.19 -0.33,0.54 -0.33,1.05l0 0.78 2 0 0 1.12 -1.98 0 0 7.44 -1.74 0z"/>
  <path id="1" class="fil2 str3" d="M179.56 -70.46l0 -7.44 -1.54 0 0 -1.12 1.54 0 0 -0.9c0,-0.58 0.06,-1 0.18,-1.28 0.17,-0.37 0.46,-0.68 0.88,-0.91 0.42,-0.24 1.01,-0.35 1.77,-0.35 0.49,0 1.03,0.05 1.63,0.14l-0.26 1.27c-0.37,-0.05 -0.71,-0.08 -1.03,-0.08 -0.53,0 -0.9,0.1 -1.12,0.28 -0.22,0.19 -0.33,0.54 -0.33,1.05l0 0.78 2 0 0 1.12 -1.98 0 0 7.44 -1.74 0z"/>
  <path class="fil0 str0" d="M151.01 -85.46l16.01 0c0.55,0 1,0.45 1,1l0 16c0,0.55 -0.45,1 -1,1l-16.01 0c-0.55,0 -1,-0.45 -1,-1l0 -16c0,-0.55 0.45,-1 1,-1z"/>
  <path class="fil1" d="M157.56 -70.46l0 -7.44 -1.55 0 0 -1.12 1.55 0 0 -0.9c0,-0.58 0.06,-1 0.18,-1.28 0.17,-0.37 0.46,-0.68 0.88,-0.91 0.42,-0.24 1.01,-0.35 1.77,-0.35 0.49,0 1.03,0.05 1.63,0.14l-0.27 1.27c-0.36,-0.05 -0.7,-0.08 -1.02,-0.08 -0.53,0 -0.9,0.1 -1.12,0.28 -0.22,0.19 -0.33,0.54 -0.33,1.05l0 0.78 2 0 0 1.12 -1.98 0 0 7.44 -1.74 0z"/>
  <path id="1" class="fil2 str1" d="M157.56 -70.46l0 -7.44 -1.55 0 0 -1.12 1.55 0 0 -0.9c0,-0.58 0.06,-1 0.18,-1.28 0.17,-0.37 0.46,-0.68 0.88,-0.91 0.42,-0.24 1.01,-0.35 1.77,-0.35 0.49,0 1.03,0.05 1.63,0.14l-0.27 1.27c-0.36,-0.05 -0.7,-0.08 -1.02,-0.08 -0.53,0 -0.9,0.1 -1.12,0.28 -0.22,0.19 -0.33,0.54 -0.33,1.05l0 0.78 2 0 0 1.12 -1.98 0 0 7.44 -1.74 0z"/>
  <polygon class="fil5" points="8.12,-71.46 8.12,-75.61 4,-75.61 4,-77.34 8.12,-77.34 8.12,-81.46 9.88,-81.46 9.88,-77.34 14,-77.34 14,-75.61 9.88,-75.61 9.88,-71.46 "/>
  <polygon id="1" class="fil2 str3" points="8.12,-71.46 8.12,-75.61 4,-75.61 4,-77.34 8.12,-77.34 8.12,-81.46 9.88,-81.46 9.88,-77.34 14,-77.34 14,-75.61 9.88,-75.61 9.88,-71.46 "/>
  <polygon class="fil0 str0" points="202.02,-83.46 203.66,-78.1 209.02,-78.11 204.68,-74.81 206.35,-69.46 202.02,-72.78 197.69,-69.46 199.36,-74.81 195.02,-78.11 200.37,-78.1 "/>
  <g id="_847068008">
   <path class="fil0" d="M244.7 -78.69c0.2,-0.2 0.46,-0.58 0.86,-0.61 0.92,-0.08 0.88,-0.01 1.18,0.29l1.48 1.48c0.56,0.57 0.57,1.54 -0.02,2.16l-1.48 1.48c-0.14,0.15 -0.18,0.27 -0.45,0.28 -1.07,0 -0.9,0.04 -1.58,-0.64 -0.65,-0.65 -1.66,-1.6 -2.21,-2.21l2.22 -2.23zm-9.05 5.06c-0.7,0 -0.47,0.08 -1.11,-0.56 -0.23,-0.23 -0.43,-0.43 -0.65,-0.65 -0.35,-0.35 -0.97,-0.8 -0.97,-1.62 0,-0.84 0.61,-1.27 0.97,-1.62 0.22,-0.22 0.41,-0.42 0.63,-0.64 0.65,-0.65 0.42,-0.58 1.13,-0.58 0.51,0 0.72,0.32 0.95,0.55 0.29,0.3 2.17,2.13 2.26,2.29 -0.1,0.15 -1.29,1.3 -1.51,1.52 -0.26,0.26 -0.49,0.5 -0.76,0.76 -0.24,0.24 -0.42,0.55 -0.94,0.55zm-3.87 -3.12l0 0.57c0.07,0.15 0.12,0.55 0.21,0.77 0.26,0.64 0.88,1.16 1.39,1.67 0.35,0.35 0.67,0.67 1.02,1.02 0.31,0.31 0.21,0.23 0.79,0.23 0.33,0 0.66,0.03 0.97,-0.05 0.6,-0.14 0.9,-0.49 1.2,-0.8l2.04 -2.04c0.3,-0.3 0.63,-0.75 1.35,-0.71 0.63,0.03 0.97,0.48 1.25,0.76l2.04 2.04c0.94,0.94 1.25,0.83 2.72,0.82 0.25,-0.01 0.23,-0.05 0.36,-0.18 0.73,-0.75 2.05,-1.87 2.42,-2.69 0.2,-0.44 0.16,-0.62 0.24,-0.79l0 -0.66c-0.09,-0.2 -0.09,-0.81 -0.65,-1.41 -0.33,-0.37 -0.65,-0.69 -1,-1.04 -0.35,-0.34 -0.68,-0.67 -1.02,-1.02 -0.28,-0.28 -0.29,-0.19 -0.81,-0.19 -1.2,0 -1.39,-0.06 -2.24,0.79l-2.04 2.04c-0.27,0.27 -0.65,0.75 -1.25,0.8 -0.7,0.05 -1.04,-0.4 -1.33,-0.69l-2.04 -2.04c-0.31,-0.31 -0.6,-0.68 -1.21,-0.83 -0.2,-0.05 -1.24,-0.1 -1.49,-0.06 -0.18,0.03 -1.13,1.07 -1.3,1.24 -0.53,0.52 -1.13,1.01 -1.4,1.66 -0.1,0.24 -0.15,0.63 -0.22,0.79z"/>
   <path class="fil0" d="M237.67 -81.87c0.45,-0.41 0.92,-0.92 1.37,-1.36 0.53,-0.54 0.89,-1.05 1.67,-1.09 0.89,-0.04 1.37,0.65 1.74,1.02l1.35 1.35c-0.02,0.03 -0.56,0.37 -0.88,0.67 -0.42,0.39 -2.08,2.15 -2.28,2.25 -0.14,-0.19 -0.54,-0.55 -0.73,-0.74 -0.87,-0.87 -1.29,-1.38 -2.24,-2.1zm3.4 -3.59l-0.57 0c-0.12,0.05 -0.32,0.06 -0.46,0.1 -0.93,0.26 -1.54,1.05 -2.28,1.8l-2.31 2.32c0.85,0.09 1.06,0.01 1.75,0.45 0.41,0.25 2.31,2.23 2.85,2.77 0.73,0.73 0.79,0.46 1.9,-0.65 0.45,-0.45 1.85,-1.93 2.3,-2.2 0.79,-0.48 1.25,-0.3 1.87,-0.38 -0.39,-0.35 -0.78,-0.78 -1.16,-1.15 -0.39,-0.4 -0.76,-0.77 -1.16,-1.16 -0.39,-0.39 -0.78,-0.76 -1.15,-1.16 -0.54,-0.58 -1.3,-0.61 -1.58,-0.74z"/>
   <path class="fil0" d="M237.67 -71.06c0.4,-0.33 0.28,-0.15 0.79,-0.65l2.18 -2.19c0.24,0.12 1.98,2.06 2.73,2.63 0.11,0.08 0.37,0.22 0.43,0.29 -0.42,0.47 -0.92,0.92 -1.37,1.37 -0.38,0.38 -0.84,1.06 -1.76,1 -0.41,-0.02 -0.74,-0.21 -0.96,-0.42 -0.4,-0.38 -1.79,-1.81 -2.04,-2.03zm2.83 3.6l0.56 0c0.12,-0.06 0.32,-0.07 0.46,-0.11 0.47,-0.13 0.78,-0.32 1.11,-0.64 0.51,-0.48 3.18,-3.21 3.48,-3.46 -0.32,-0.05 -0.66,0 -1.02,-0.07 -0.3,-0.05 -0.58,-0.15 -0.82,-0.3 -0.91,-0.6 -3.14,-3.16 -3.47,-3.25 -0.36,-0.1 -0.57,0.21 -0.71,0.35 -0.58,0.58 -2.39,2.45 -2.85,2.78 -0.51,0.36 -1.02,0.47 -1.79,0.47 0.06,0.15 2.95,2.92 3.45,3.47 0.58,0.63 1.44,0.69 1.6,0.76z"/>
  </g>
  <g id="_842514000">
   <path class="fil0" d="M252.31 -76.75l0 0.57c0.16,0.35 0.04,0.68 0.59,1.41l2.04 2.05c0.31,0.31 0.21,0.23 0.78,0.23 1.18,0 1.36,-0.03 2.18,-0.85 0.35,-0.35 0.67,-0.67 1.02,-1.02 0.34,-0.35 0.67,-0.67 1.02,-1.02 0.29,-0.3 0.62,-0.75 1.34,-0.71 0.64,0.03 0.97,0.48 1.25,0.76l2.04 2.04c0.18,0.18 0.3,0.34 0.53,0.5 0.59,0.39 1.42,0.34 2.19,0.32 0.21,-0.01 0.25,-0.1 0.35,-0.2l1.53 -1.53c0.78,-0.78 0.83,-0.81 1.1,-1.81l0.04 -0.12 0 -0.66 -0.03 -0.09c-0.08,-0.29 -0.03,-0.29 -0.21,-0.71 -0.11,-0.24 -0.25,-0.45 -0.39,-0.63l-2.04 -2.04c-0.26,-0.26 -0.26,-0.19 -0.84,-0.19 -0.66,0 -1.17,-0.06 -1.72,0.34 -0.24,0.17 -1.29,1.25 -1.55,1.51 -0.35,0.35 -0.67,0.67 -1.02,1.02 -0.27,0.27 -0.62,0.73 -1.24,0.76 -0.69,0.03 -1.02,-0.42 -1.31,-0.71l-2.04 -2.04c-0.83,-0.83 -1,-0.87 -2.2,-0.87 -0.57,0 -0.48,-0.08 -0.79,0.23l-2.03 2.05c-0.54,0.7 -0.44,1.09 -0.59,1.41z"/>
   <path class="fil0" d="M261.03 -67.46l0.56 0c0.13,-0.06 0.32,-0.07 0.46,-0.11 0.39,-0.11 0.88,-0.37 1.13,-0.63l3.46 -3.47c-0.49,-0.08 -1.09,0.09 -1.83,-0.37 -0.65,-0.4 -2.21,-2.06 -2.87,-2.73 -0.52,-0.52 -0.66,-0.84 -1.32,-0.17 -0.2,0.19 -0.37,0.36 -0.57,0.56 -0.42,0.42 -1.91,1.98 -2.28,2.22 -0.53,0.35 -1.02,0.47 -1.79,0.47 0.15,0.22 3.06,3.05 3.47,3.49 0.56,0.61 1.43,0.67 1.58,0.74z"/>
   <path class="fil0" d="M261.6 -85.46l-0.57 0c-0.12,0.05 -0.32,0.06 -0.46,0.1 -0.42,0.12 -0.83,0.34 -1.12,0.64 -0.38,0.4 -0.77,0.76 -1.16,1.16l-2.31 2.32c0.8,0.09 1.12,0.01 1.75,0.45 0.49,0.33 2.27,2.18 2.86,2.77 0.73,0.73 0.78,0.46 1.89,-0.65 0.47,-0.46 1.84,-1.93 2.3,-2.2 0.8,-0.48 1.25,-0.3 1.87,-0.38 -0.39,-0.35 -0.78,-0.78 -1.15,-1.15 -0.68,-0.67 -1.72,-1.67 -2.32,-2.32 -0.56,-0.61 -1.41,-0.67 -1.58,-0.74z"/>
   <path class="fil0" d="M263.01 -76.46c0.55,0.61 1.56,1.56 2.21,2.21 0.68,0.68 0.52,0.64 1.58,0.64 0.27,-0.01 0.31,-0.13 0.46,-0.28l1.47 -1.48c0.59,-0.62 0.58,-1.59 0.02,-2.16l-1.47 -1.48c-0.3,-0.3 -0.27,-0.37 -1.18,-0.29 -0.41,0.03 -0.67,0.41 -0.87,0.61l-2.22 2.23z"/>
   <path class="fil0" d="M255.76 -73.63c0.89,0 0.81,0.01 1.37,-0.55 0.29,-0.29 2.16,-2.13 2.26,-2.28 -0.09,-0.15 -1.28,-1.31 -1.5,-1.53 -0.27,-0.26 -0.5,-0.5 -0.76,-0.76 -0.56,-0.56 -0.51,-0.55 -1.37,-0.55 -0.21,0 -0.47,0.34 -0.69,0.57 -0.23,0.22 -0.43,0.42 -0.65,0.65 -0.36,0.35 -0.97,0.78 -0.96,1.62 0,0.83 0.61,1.26 0.96,1.62l0.95 0.95c0.11,0.11 0.19,0.26 0.39,0.26z"/>
   <path class="fil0" d="M258.2 -81.85c0.14,0.11 0.26,0.17 0.41,0.28 0.14,0.11 0.27,0.24 0.39,0.36l2.17 2.18c0.3,-0.16 2.02,-2.11 2.71,-2.61 0.12,-0.08 0.38,-0.23 0.45,-0.31l-1.36 -1.37c-0.37,-0.37 -0.85,-1.06 -1.76,-1 -0.76,0.06 -1.15,0.59 -1.66,1.1l-1.35 1.37z"/>
   <path class="fil0" d="M258.2 -71.06c0.25,0.22 1.64,1.65 2.04,2.03 0.22,0.21 0.55,0.4 0.97,0.42 0.91,0.06 1.38,-0.62 1.76,-1 0.45,-0.45 0.94,-0.9 1.36,-1.37l-0.86 -0.65c-0.42,-0.39 -2.11,-2.17 -2.3,-2.27 -0.1,0.15 -2.33,2.36 -2.56,2.54 -0.15,0.11 -0.28,0.19 -0.41,0.3z"/>
  </g>
  <g id="_617442264">
   <circle class="fil0 str0" cx="276.06" cy="-76.71" r="2.25"/>
   <circle class="fil0 str0" cx="289.57" cy="-69.71" r="2.25"/>
   <circle class="fil0 str0" cx="289.57" cy="-83.21" r="2.25"/>
   <polyline class="fil3 str4" points="289.57,-83.21 276.06,-76.71 289.82,-68.96 "/>
  </g>
  <polygon class="fil5" points="299.03,-75.73 299.03,-77.06 305.4,-80.31 305.4,-78.88 300.35,-76.39 305.4,-73.87 305.4,-72.44 "/>
  <polygon id="1" class="fil5" points="306.16,-70.46 308.96,-82.46 309.92,-82.46 307.11,-70.46 "/>
  <polygon id="2" class="fil5" points="317.03,-75.73 310.66,-72.44 310.66,-73.87 315.69,-76.39 310.66,-78.88 310.66,-80.31 317.03,-77.06 "/>
  <polygon id="3" class="fil2 str3" points="299.03,-75.73 299.03,-77.06 305.4,-80.31 305.4,-78.88 300.35,-76.39 305.4,-73.87 305.4,-72.44 "/>
  <polygon id="4" class="fil2 str3" points="306.16,-70.46 308.96,-82.46 309.92,-82.46 307.11,-70.46 "/>
  <polygon id="5" class="fil2 str3" points="317.03,-75.73 310.66,-72.44 310.66,-73.87 315.69,-76.39 310.66,-78.88 310.66,-80.31 317.03,-77.06 "/>
  <g style="clip-path:url(#id0)">
   <image x="-470.1" y="-1079.23" width="512.05" height="512.05" xlink:href="html-outline_Images\html-outline_ImgID1.png"/>
  </g>
  <path class="fil6" d="M329 -67.46l1.27 -0.37c1.14,-0.32 2.59,-0.79 3.76,-1.15 0.41,-0.12 0.85,-0.25 1.26,-0.37 0.18,-0.06 0.17,-0.01 0.21,-0.18l0.11 -1.12c0.05,-0.47 0.11,-1 0.14,-1.49 0.04,-0.78 0.25,-2.21 0.28,-2.95 0.03,-0.7 0.22,-2.17 0.29,-2.96l0.27 -2.96c0.11,-0.74 0.17,-2.17 0.27,-2.97l0.14 -1.48 -16.01 0 0.14 1.48c0.1,0.8 0.16,2.22 0.27,2.97 0.07,0.5 0.08,0.98 0.14,1.48 0.05,0.48 0.1,0.98 0.14,1.48 0.06,0.79 0.25,2.26 0.28,2.96 0.03,0.74 0.24,2.18 0.28,2.95l0.24 2.58c0.04,0.19 0.03,0.15 0.22,0.21l5.66 1.71c0.1,0.03 0.55,0.18 0.64,0.18z"/>
  <path class="fil1" d="M325 -74.24l1.55 -0.1c0.11,0.62 0.38,1.09 0.8,1.41 0.41,0.31 0.92,0.47 1.52,0.47 0.72,0 1.33,-0.23 1.82,-0.67 0.49,-0.44 0.74,-1.03 0.74,-1.76 0,-0.7 -0.24,-1.25 -0.71,-1.65 -0.47,-0.41 -1.09,-0.61 -1.86,-0.61 -0.48,0 -0.91,0.09 -1.3,0.27 -0.38,0.18 -0.68,0.42 -0.89,0.7l-1.4 -0.16 1.16 -5.12 5.99 0 0 1.17 -4.81 0 -0.64 2.68c0.72,-0.42 1.48,-0.62 2.28,-0.62 1.05,0 1.94,0.3 2.66,0.9 0.72,0.6 1.08,1.38 1.08,2.32 0,0.9 -0.31,1.68 -0.95,2.34 -0.77,0.81 -1.83,1.21 -3.17,1.21 -1.1,0 -1.99,-0.26 -2.68,-0.76 -0.7,-0.51 -1.1,-1.18 -1.19,-2.02z"/>
  <path id="1" class="fil2 str1" d="M325 -74.24l1.55 -0.1c0.11,0.62 0.38,1.09 0.8,1.41 0.41,0.31 0.92,0.47 1.52,0.47 0.72,0 1.33,-0.23 1.82,-0.67 0.49,-0.44 0.74,-1.03 0.74,-1.76 0,-0.7 -0.24,-1.25 -0.71,-1.65 -0.47,-0.41 -1.09,-0.61 -1.86,-0.61 -0.48,0 -0.91,0.09 -1.3,0.27 -0.38,0.18 -0.68,0.42 -0.89,0.7l-1.4 -0.16 1.16 -5.12 5.99 0 0 1.17 -4.81 0 -0.64 2.68c0.72,-0.42 1.48,-0.62 2.28,-0.62 1.05,0 1.94,0.3 2.66,0.9 0.72,0.6 1.08,1.38 1.08,2.32 0,0.9 -0.31,1.68 -0.95,2.34 -0.77,0.81 -1.83,1.21 -3.17,1.21 -1.1,0 -1.99,-0.26 -2.68,-0.76 -0.7,-0.51 -1.1,-1.18 -1.19,-2.02z"/>
  <path class="fil3 str0" d="M12 21l1.27 -0.37c1.15,-0.32 2.59,-0.79 3.76,-1.15 0.42,-0.12 0.85,-0.25 1.26,-0.37 0.18,-0.06 0.18,-0.01 0.22,-0.18l0.1 -1.12c0.05,-0.47 0.11,-0.99 0.14,-1.48 0.05,-0.78 0.25,-2.22 0.29,-2.96 0.03,-0.7 0.22,-2.17 0.28,-2.96l0.27 -2.96c0.11,-0.74 0.17,-2.17 0.28,-2.96l0.13 -1.49 -16 0 0.13 1.49c0.11,0.8 0.17,2.21 0.28,2.96 0.07,0.5 0.08,0.98 0.13,1.49 0.05,0.47 0.1,0.97 0.14,1.47 0.06,0.79 0.25,2.26 0.28,2.96 0.04,0.74 0.24,2.18 0.29,2.96l0.24 2.58c0.03,0.18 0.03,0.15 0.22,0.2l5.65 1.71c0.11,0.04 0.55,0.18 0.64,0.18z"/>
  <path class="fil5" d="M8 14.22l1.55 -0.1c0.12,0.63 0.39,1.09 0.8,1.41 0.42,0.31 0.93,0.47 1.53,0.47 0.72,0 1.32,-0.22 1.82,-0.67 0.49,-0.44 0.73,-1.03 0.73,-1.76 0,-0.7 -0.23,-1.25 -0.7,-1.65 -0.47,-0.41 -1.09,-0.61 -1.87,-0.61 -0.48,0 -0.91,0.09 -1.29,0.27 -0.38,0.18 -0.68,0.42 -0.9,0.71l-1.4 -0.17 1.16 -5.12 6 0 0 1.17 -4.81 0 -0.65 2.69c0.73,-0.42 1.49,-0.63 2.28,-0.63 1.05,0 1.94,0.3 2.66,0.9 0.73,0.6 1.09,1.38 1.09,2.32 0,0.91 -0.32,1.68 -0.95,2.34 -0.78,0.81 -1.84,1.21 -3.17,1.21 -1.1,0 -2,-0.26 -2.69,-0.76 -0.69,-0.51 -1.09,-1.18 -1.19,-2.02z"/>
  <path id="1" class="fil2 str3" d="M8 14.22l1.55 -0.1c0.12,0.63 0.39,1.09 0.8,1.41 0.42,0.31 0.93,0.47 1.53,0.47 0.72,0 1.32,-0.22 1.82,-0.67 0.49,-0.44 0.73,-1.03 0.73,-1.76 0,-0.7 -0.23,-1.25 -0.7,-1.65 -0.47,-0.41 -1.09,-0.61 -1.87,-0.61 -0.48,0 -0.91,0.09 -1.29,0.27 -0.38,0.18 -0.68,0.42 -0.9,0.71l-1.4 -0.17 1.16 -5.12 6 0 0 1.17 -4.81 0 -0.65 2.69c0.73,-0.42 1.49,-0.63 2.28,-0.63 1.05,0 1.94,0.3 2.66,0.9 0.73,0.6 1.09,1.38 1.09,2.32 0,0.91 -0.32,1.68 -0.95,2.34 -0.78,0.81 -1.84,1.21 -3.17,1.21 -1.1,0 -2,-0.26 -2.69,-0.76 -0.69,-0.51 -1.09,-1.18 -1.19,-2.02z"/>
 </g>
</svg>
