<svg xmlns="http://www.w3.org/2000/svg" xml:space="preserve" width="24" height="24" style="shape-rendering:geometricPrecision;text-rendering:geometricPrecision;image-rendering:optimizeQuality;fill-rule:evenodd;clip-rule:evenodd" xmlns:xlink="http://www.w3.org/1999/xlink"><defs><clipPath id="id0"><path d="M-470.1-1079.23H41.95v512.05H-470.1z"/></clipPath><style>.str0,.str1,.str3{stroke:#000;stroke-width:2.36;stroke-miterlimit:22.9256}.str1,.str3{stroke-width:.9}.str1{stroke:#fff}.fil2,.fil3{fill:none}.fil2{fill-rule:nonzero}.fil0{fill:#000}.fil1,.fil5{fill:#000;fill-rule:nonzero}.fil1{fill:#fff}</style></defs><g id="Layer_x0020_1"><circle class="fil0 str0" cx="-13.74" cy="-76.46" r="9"/><path class="fil1" d="M-14.62-71.46v-4.15h-4.12v-1.73h4.12v-4.12h1.76v4.12h4.12v1.73h-4.12v4.15z"/><path id="1" class="fil2 str1" d="M-14.62-71.46v-4.15h-4.12v-1.73h4.12v-4.12h1.76v4.12h4.12v1.73h-4.12v4.15z"/><circle class="fil3 str0" cx="9" cy="-76.46" r="9"/><path class="fil3 str0" d="M43.1-84.42h11.8c.06 0 .1.05.1.1v15.68c0 .04-.02.07-.06.09-.03.02-.07.01-.1-.02l-5.03-4.64c-.03-.03-.08-.03-.12 0l-6.53 4.68c-.03.03-.07.03-.1.01-.04-.02-.06-.05-.06-.09v-15.71c0-.05.05-.1.1-.1z"/><path class="fil0 str0" d="M24.29-84.42h11.8c.06 0 .1.05.1.1v15.68c0 .04-.02.07-.06.09-.04.02-.08.01-.11-.02L31-73.21a.091.091 0 0 0-.12 0l-6.53 4.68c-.03.03-.07.03-.11.01a.105.105 0 0 1-.05-.09v-15.71c0-.05.05-.1.1-.1z"/><path class="fil3 str0" d="m222.68-83.46 1.65 5.36 5.35-.01-4.33 3.3 1.66 5.35-4.33-3.32-4.32 3.32 1.66-5.35-4.34-3.3 5.36.01z"/><circle class="fil3 str0" cx="136.12" cy="-76.46" r="9"/><path class="fil0 str0" d="m139.12-76.46-3 1.5-3 1.5v-6l3 1.5z"/><circle class="fil0 str0" cx="114.12" cy="-76.46" r="9"/><path style="fill:#fff;stroke:#fff;stroke-width:2.36;stroke-miterlimit:22.9256" d="m117.12-76.46-3 1.5-3 1.5v-6l3 1.5z"/><circle class="fil3 str0" cx="69.29" cy="-76.46" r="9"/><path class="fil5" d="M67.84-70.46v-7.44h-1.55v-1.12h1.55v-.9c0-.58.06-1 .18-1.28.17-.37.46-.68.88-.91.42-.24 1.01-.35 1.77-.35.49 0 1.03.05 1.62.14l-.26 1.27c-.36-.05-.7-.08-1.02-.08-.53 0-.9.1-1.12.28-.22.19-.33.54-.33 1.05v.78h2v1.12h-1.98v7.44h-1.74z"/><path class="fil2 str3" d="M67.84-70.46v-7.44h-1.55v-1.12h1.55v-.9c0-.58.06-1 .18-1.28.17-.37.46-.68.88-.91.42-.24 1.01-.35 1.77-.35.49 0 1.03.05 1.62.14l-.26 1.27c-.36-.05-.7-.08-1.02-.08-.53 0-.9.1-1.12.28-.22.19-.33.54-.33 1.05v.78h2v1.12h-1.98v7.44h-1.74z"/><circle class="fil0 str0" cx="92.12" cy="-76.46" r="9"/><path class="fil1" d="M90.66-70.46v-7.44h-1.54v-1.12h1.54v-.9c0-.58.06-1 .18-1.28.17-.37.46-.68.88-.91.42-.24 1.01-.35 1.77-.35.49 0 1.03.05 1.63.14l-.26 1.27c-.37-.05-.71-.08-1.03-.08-.53 0-.9.1-1.12.28-.22.19-.33.54-.33 1.05v.78h2v1.12H92.4v7.44h-1.74z"/><path class="fil2 str1" d="M90.66-70.46v-7.44h-1.54v-1.12h1.54v-.9c0-.58.06-1 .18-1.28.17-.37.46-.68.88-.91.42-.24 1.01-.35 1.77-.35.49 0 1.03.05 1.63.14l-.26 1.27c-.37-.05-.71-.08-1.03-.08-.53 0-.9.1-1.12.28-.22.19-.33.54-.33 1.05v.78h2v1.12H92.4v7.44h-1.74z"/><path class="fil3 str0" d="M173.02-85.46h16c.55 0 1 .45 1 1v16c0 .55-.45 1-1 1h-16c-.55 0-1-.45-1-1v-16c0-.55.45-1 1-1z"/><path class="fil5" d="M179.56-70.46v-7.44h-1.54v-1.12h1.54v-.9c0-.58.06-1 .18-1.28.17-.37.46-.68.88-.91.42-.24 1.01-.35 1.77-.35.49 0 1.03.05 1.63.14l-.26 1.27c-.37-.05-.71-.08-1.03-.08-.53 0-.9.1-1.12.28-.22.19-.33.54-.33 1.05v.78h2v1.12h-1.98v7.44h-1.74z"/><path class="fil2 str3" d="M179.56-70.46v-7.44h-1.54v-1.12h1.54v-.9c0-.58.06-1 .18-1.28.17-.37.46-.68.88-.91.42-.24 1.01-.35 1.77-.35.49 0 1.03.05 1.63.14l-.26 1.27c-.37-.05-.71-.08-1.03-.08-.53 0-.9.1-1.12.28-.22.19-.33.54-.33 1.05v.78h2v1.12h-1.98v7.44h-1.74z"/><path class="fil0 str0" d="M151.01-85.46h16.01c.55 0 1 .45 1 1v16c0 .55-.45 1-1 1h-16.01c-.55 0-1-.45-1-1v-16c0-.55.45-1 1-1z"/><path class="fil1" d="M157.56-70.46v-7.44h-1.55v-1.12h1.55v-.9c0-.58.06-1 .18-1.28.17-.37.46-.68.88-.91.42-.24 1.01-.35 1.77-.35.49 0 1.03.05 1.63.14l-.27 1.27c-.36-.05-.7-.08-1.02-.08-.53 0-.9.1-1.12.28-.22.19-.33.54-.33 1.05v.78h2v1.12h-1.98v7.44h-1.74z"/><path class="fil2 str1" d="M157.56-70.46v-7.44h-1.55v-1.12h1.55v-.9c0-.58.06-1 .18-1.28.17-.37.46-.68.88-.91.42-.24 1.01-.35 1.77-.35.49 0 1.03.05 1.63.14l-.27 1.27c-.36-.05-.7-.08-1.02-.08-.53 0-.9.1-1.12.28-.22.19-.33.54-.33 1.05v.78h2v1.12h-1.98v7.44h-1.74z"/><path class="fil5" d="M8.12-71.46v-4.15H4v-1.73h4.12v-4.12h1.76v4.12H14v1.73H9.88v4.15z"/><path class="fil2 str3" d="M8.12-71.46v-4.15H4v-1.73h4.12v-4.12h1.76v4.12H14v1.73H9.88v4.15z"/><path class="fil0 str0" d="m202.02-83.46 1.64 5.36 5.36-.01-4.34 3.3 1.67 5.35-4.33-3.32-4.33 3.32 1.67-5.35-4.34-3.3 5.35.01z"/><g id="_842525040"><path class="fil0" d="M244.7-78.69c.2-.2.46-.58.86-.61.92-.08.88-.01 1.18.29l1.48 1.48c.56.57.57 1.54-.02 2.16l-1.48 1.48c-.14.15-.18.27-.45.28-1.07 0-.9.04-1.58-.64-.65-.65-1.66-1.6-2.21-2.21l2.22-2.23zm-9.05 5.06c-.7 0-.47.08-1.11-.56l-.65-.65c-.35-.35-.97-.8-.97-1.62 0-.84.61-1.27.97-1.62.22-.22.41-.42.63-.64.65-.65.42-.58 1.13-.58.51 0 .72.32.95.55.29.3 2.17 2.13 2.26 2.29-.1.15-1.29 1.3-1.51 1.52-.26.26-.49.5-.76.76-.24.24-.42.55-.94.55zm-3.87-3.12v.57c.07.15.12.55.21.77.26.64.88 1.16 1.39 1.67l1.02 1.02c.31.31.21.23.79.23.33 0 .66.03.97-.05.6-.14.9-.49 1.2-.8l2.04-2.04c.3-.3.63-.75 1.35-.71.63.03.97.48 1.25.76l2.04 2.04c.94.94 1.25.83 2.72.82.25-.01.23-.05.36-.18.73-.75 2.05-1.87 2.42-2.69.2-.44.16-.62.24-.79v-.66c-.09-.2-.09-.81-.65-1.41-.33-.37-.65-.69-1-1.04-.35-.34-.68-.67-1.02-1.02-.28-.28-.29-.19-.81-.19-1.2 0-1.39-.06-2.24.79l-2.04 2.04c-.27.27-.65.75-1.25.8-.7.05-1.04-.4-1.33-.69l-2.04-2.04c-.31-.31-.6-.68-1.21-.83-.2-.05-1.24-.1-1.49-.06-.18.03-1.13 1.07-1.3 1.24-.53.52-1.13 1.01-1.4 1.66-.1.24-.15.63-.22.79z"/><path class="fil0" d="M237.67-81.87c.45-.41.92-.92 1.37-1.36.53-.54.89-1.05 1.67-1.09.89-.04 1.37.65 1.74 1.02l1.35 1.35c-.02.03-.56.37-.88.67-.42.39-2.08 2.15-2.28 2.25-.14-.19-.54-.55-.73-.74-.87-.87-1.29-1.38-2.24-2.1zm3.4-3.59h-.57c-.12.05-.32.06-.46.1-.93.26-1.54 1.05-2.28 1.8l-2.31 2.32c.85.09 1.06.01 1.75.45.41.25 2.31 2.23 2.85 2.77.73.73.79.46 1.9-.65.45-.45 1.85-1.93 2.3-2.2.79-.48 1.25-.3 1.87-.38-.39-.35-.78-.78-1.16-1.15-.39-.4-.76-.77-1.16-1.16-.39-.39-.78-.76-1.15-1.16-.54-.58-1.3-.61-1.58-.74zM237.67-71.06c.4-.33.28-.15.79-.65l2.18-2.19c.24.12 1.98 2.06 2.73 2.63.11.08.37.22.43.29-.42.47-.92.92-1.37 1.37-.38.38-.84 1.06-1.76 1-.41-.02-.74-.21-.96-.42-.4-.38-1.79-1.81-2.04-2.03zm2.83 3.6h.56c.12-.06.32-.07.46-.11.47-.13.78-.32 1.11-.64.51-.48 3.18-3.21 3.48-3.46-.32-.05-.66 0-1.02-.07-.3-.05-.58-.15-.82-.3-.91-.6-3.14-3.16-3.47-3.25-.36-.1-.57.21-.71.35-.58.58-2.39 2.45-2.85 2.78-.51.36-1.02.47-1.79.47.06.15 2.95 2.92 3.45 3.47.58.63 1.44.69 1.6.76z"/></g><g id="_842514936"><path class="fil0" d="M252.31-76.75v.57c.16.35.04.68.59 1.41l2.04 2.05c.31.31.21.23.78.23 1.18 0 1.36-.03 2.18-.85l1.02-1.02c.34-.35.67-.67 1.02-1.02.29-.3.62-.75 1.34-.71.64.03.97.48 1.25.76l2.04 2.04c.18.18.3.34.53.5.59.39 1.42.34 2.19.32.21-.01.25-.1.35-.2l1.53-1.53c.78-.78.83-.81 1.1-1.81l.04-.12v-.66l-.03-.09c-.08-.29-.03-.29-.21-.71-.11-.24-.25-.45-.39-.63l-2.04-2.04c-.26-.26-.26-.19-.84-.19-.66 0-1.17-.06-1.72.34-.24.17-1.29 1.25-1.55 1.51l-1.02 1.02c-.27.27-.62.73-1.24.76-.69.03-1.02-.42-1.31-.71l-2.04-2.04c-.83-.83-1-.87-2.2-.87-.57 0-.48-.08-.79.23l-2.03 2.05c-.54.7-.44 1.09-.59 1.41z"/><path class="fil0" d="M261.03-67.46h.56c.13-.06.32-.07.46-.11.39-.11.88-.37 1.13-.63l3.46-3.47c-.49-.08-1.09.09-1.83-.37-.65-.4-2.21-2.06-2.87-2.73-.52-.52-.66-.84-1.32-.17-.2.19-.37.36-.57.56-.42.42-1.91 1.98-2.28 2.22-.53.35-1.02.47-1.79.47.15.22 3.06 3.05 3.47 3.49.56.61 1.43.67 1.58.74zM261.6-85.46h-.57c-.12.05-.32.06-.46.1-.42.12-.83.34-1.12.64-.38.4-.77.76-1.16 1.16l-2.31 2.32c.8.09 1.12.01 1.75.45.49.33 2.27 2.18 2.86 2.77.73.73.78.46 1.89-.65.47-.46 1.84-1.93 2.3-2.2.8-.48 1.25-.3 1.87-.38-.39-.35-.78-.78-1.15-1.15-.68-.67-1.72-1.67-2.32-2.32-.56-.61-1.41-.67-1.58-.74zM263.01-76.46c.55.61 1.56 1.56 2.21 2.21.68.68.52.64 1.58.64.27-.01.31-.13.46-.28l1.47-1.48c.59-.62.58-1.59.02-2.16l-1.47-1.48c-.3-.3-.27-.37-1.18-.29-.41.03-.67.41-.87.61l-2.22 2.23zM255.76-73.63c.89 0 .81.01 1.37-.55.29-.29 2.16-2.13 2.26-2.28-.09-.15-1.28-1.31-1.5-1.53-.27-.26-.5-.5-.76-.76-.56-.56-.51-.55-1.37-.55-.21 0-.47.34-.69.57-.23.22-.43.42-.65.65-.36.35-.97.78-.96 1.62 0 .83.61 1.26.96 1.62l.95.95c.11.11.19.26.39.26z"/><path class="fil0" d="M258.2-81.85c.14.11.26.17.41.28.14.11.27.24.39.36l2.17 2.18c.3-.16 2.02-2.11 2.71-2.61.12-.08.38-.23.45-.31l-1.36-1.37c-.37-.37-.85-1.06-1.76-1-.76.06-1.15.59-1.66 1.1l-1.35 1.37zM258.2-71.06c.25.22 1.64 1.65 2.04 2.03.22.21.55.4.97.42.91.06 1.38-.62 1.76-1 .45-.45.94-.9 1.36-1.37l-.86-.65c-.42-.39-2.11-2.17-2.3-2.27-.1.15-2.33 2.36-2.56 2.54-.15.11-.28.19-.41.3z"/></g><g id="_615471048"><circle class="fil0 str0" cx="276.06" cy="-76.71" r="2.25"/><circle class="fil0 str0" cx="289.57" cy="-69.71" r="2.25"/><circle class="fil0 str0" cx="289.57" cy="-83.21" r="2.25"/><path class="fil3" style="stroke:#000;stroke-width:2.36;stroke-miterlimit:22.9256" d="m289.57-83.21-13.51 6.5 13.76 7.75"/></g><path class="fil5" d="M299.03-75.73v-1.33l6.37-3.25v1.43l-5.05 2.49 5.05 2.52v1.43zM306.16-70.46l2.8-12h.96l-2.81 12z"/><path id="2" class="fil5" d="m317.03-75.73-6.37 3.29v-1.43l5.03-2.52-5.03-2.49v-1.43l6.37 3.25z"/><path id="3" class="fil2 str3" d="M299.03-75.73v-1.33l6.37-3.25v1.43l-5.05 2.49 5.05 2.52v1.43z"/><path id="4" class="fil2 str3" d="m306.16-70.46 2.8-12h.96l-2.81 12z"/><path id="5" class="fil2 str3" d="m317.03-75.73-6.37 3.29v-1.43l5.03-2.52-5.03-2.49v-1.43l6.37 3.25z"/><image x="-470.1" y="-1079.23" width="512.05" height="512.05" xlink:href="html_Images\html_ImgID1.png" style="clip-path:url(#id0)"/><path d="m12.5 21 1.27-.37c1.15-.32 2.59-.79 3.76-1.15.42-.12.85-.25 1.26-.37.19-.06.18-.01.22-.18l.1-1.12c.06-.47.12-.99.14-1.48.05-.78.26-2.22.29-2.96.03-.7.22-2.17.28-2.96l.27-2.96c.11-.74.17-2.17.28-2.96L20.5 3h-16l.13 1.49c.11.8.17 2.21.28 2.96.07.5.08.98.13 1.49.05.47.1.97.14 1.47.06.79.25 2.26.28 2.96.04.74.25 2.18.29 2.96l.24 2.58c.03.18.03.15.22.2l5.65 1.71c.11.04.55.18.64.18z" style="fill:#050505"/><path class="fil1" d="m8.5 14.22 1.55-.1c.12.63.39 1.09.8 1.41.42.31.93.47 1.53.47.72 0 1.32-.22 1.82-.67.49-.44.73-1.03.73-1.76 0-.7-.23-1.25-.7-1.65-.47-.41-1.09-.61-1.87-.61-.48 0-.91.09-1.29.27-.38.18-.68.42-.9.71l-1.4-.17L9.93 7h6v1.17h-4.81l-.64 2.69c.72-.42 1.48-.63 2.27-.63 1.05 0 1.94.3 2.66.9.73.6 1.09 1.38 1.09 2.32 0 .91-.32 1.68-.95 2.34-.78.81-1.83 1.21-3.17 1.21-1.1 0-2-.26-2.69-.76-.69-.51-1.09-1.18-1.19-2.02z"/><path class="fil2 str1" d="m8.5 14.22 1.55-.1c.12.63.39 1.09.8 1.41.42.31.93.47 1.53.47.72 0 1.32-.22 1.82-.67.49-.44.73-1.03.73-1.76 0-.7-.23-1.25-.7-1.65-.47-.41-1.09-.61-1.87-.61-.48 0-.91.09-1.29.27-.38.18-.68.42-.9.71l-1.4-.17L9.93 7h6v1.17h-4.81l-.64 2.69c.72-.42 1.48-.63 2.27-.63 1.05 0 1.94.3 2.66.9.73.6 1.09 1.38 1.09 2.32 0 .91-.32 1.68-.95 2.34-.78.81-1.83 1.21-3.17 1.21-1.1 0-2-.26-2.69-.76-.69-.51-1.09-1.18-1.19-2.02z"/></g></svg>