<svg xmlns="http://www.w3.org/2000/svg" xml:space="preserve" width="24" height="24" style="shape-rendering:geometricPrecision;text-rendering:geometricPrecision;image-rendering:optimizeQuality;fill-rule:evenodd;clip-rule:evenodd"><defs><style>.str0,.str1,.str3{stroke:#000;stroke-width:2.36;stroke-miterlimit:22.9256}.str1,.str3{stroke-width:.9}.str1{stroke:#fff}.fil2,.fil3{fill:none}.fil2{fill-rule:nonzero}.fil0{fill:#000}.fil1,.fil5{fill:#000;fill-rule:nonzero}.fil1{fill:#fff}</style></defs><g id="Layer_x0020_1"><circle class="fil0 str0" cx="-13.74" cy="-76.46" r="9"/><path class="fil1" d="M-14.62-71.46v-4.15h-4.12v-1.73h4.12v-4.12h1.76v4.12h4.12v1.73h-4.12v4.15z"/><path id="1" class="fil2 str1" d="M-14.62-71.46v-4.15h-4.12v-1.73h4.12v-4.12h1.76v4.12h4.12v1.73h-4.12v4.15z"/><circle class="fil3 str0" cx="9" cy="-76.46" r="9"/><path class="fil3 str0" d="M43.1-84.42h11.8c.06 0 .1.05.1.1v15.68c0 .04-.02.07-.06.09-.03.02-.07.01-.1-.02l-5.03-4.64c-.03-.03-.08-.03-.12 0l-6.53 4.68c-.03.03-.07.03-.1.01-.04-.02-.06-.05-.06-.09v-15.71c0-.05.05-.1.1-.1z"/><path class="fil0 str0" d="M24.29-84.42h11.8c.06 0 .1.05.1.1v15.68c0 .04-.02.07-.06.09-.04.02-.08.01-.11-.02L31-73.21a.091.091 0 0 0-.12 0l-6.53 4.68c-.03.03-.07.03-.11.01a.105.105 0 0 1-.05-.09v-15.71c0-.05.05-.1.1-.1z"/><path class="fil3 str0" d="m222.68-83.46 1.65 5.36 5.35-.01-4.33 3.3 1.66 5.35-4.33-3.32-4.32 3.32 1.66-5.35-4.34-3.3 5.36.01z"/><circle class="fil3 str0" cx="136.12" cy="-76.46" r="9"/><path class="fil0 str0" d="m139.12-76.46-3 1.5-3 1.5v-6l3 1.5z"/><circle class="fil0 str0" cx="114.12" cy="-76.46" r="9"/><path style="fill:#fff;stroke:#fff;stroke-width:2.36;stroke-miterlimit:22.9256" d="m117.12-76.46-3 1.5-3 1.5v-6l3 1.5z"/><circle class="fil3 str0" cx="69.29" cy="-76.46" r="9"/><path class="fil5" d="M67.84-70.46v-7.44h-1.55v-1.12h1.55v-.9c0-.58.06-1 .18-1.28.17-.37.46-.68.88-.91.42-.24 1.01-.35 1.77-.35.49 0 1.03.05 1.62.14l-.26 1.27c-.36-.05-.7-.08-1.02-.08-.53 0-.9.1-1.12.28-.22.19-.33.54-.33 1.05v.78h2v1.12h-1.98v7.44h-1.74z"/><path class="fil2 str3" d="M67.84-70.46v-7.44h-1.55v-1.12h1.55v-.9c0-.58.06-1 .18-1.28.17-.37.46-.68.88-.91.42-.24 1.01-.35 1.77-.35.49 0 1.03.05 1.62.14l-.26 1.27c-.36-.05-.7-.08-1.02-.08-.53 0-.9.1-1.12.28-.22.19-.33.54-.33 1.05v.78h2v1.12h-1.98v7.44h-1.74z"/><circle class="fil0 str0" cx="92.12" cy="-76.46" r="9"/><path class="fil1" d="M90.66-70.46v-7.44h-1.54v-1.12h1.54v-.9c0-.58.06-1 .18-1.28.17-.37.46-.68.88-.91.42-.24 1.01-.35 1.77-.35.49 0 1.03.05 1.63.14l-.26 1.27c-.37-.05-.71-.08-1.03-.08-.53 0-.9.1-1.12.28-.22.19-.33.54-.33 1.05v.78h2v1.12H92.4v7.44h-1.74z"/><path class="fil2 str1" d="M90.66-70.46v-7.44h-1.54v-1.12h1.54v-.9c0-.58.06-1 .18-1.28.17-.37.46-.68.88-.91.42-.24 1.01-.35 1.77-.35.49 0 1.03.05 1.63.14l-.26 1.27c-.37-.05-.71-.08-1.03-.08-.53 0-.9.1-1.12.28-.22.19-.33.54-.33 1.05v.78h2v1.12H92.4v7.44h-1.74z"/><path class="fil3 str0" d="M173.02-85.46h16c.55 0 1 .45 1 1v16c0 .55-.45 1-1 1h-16c-.55 0-1-.45-1-1v-16c0-.55.45-1 1-1z"/><path class="fil5" d="M179.56-70.46v-7.44h-1.54v-1.12h1.54v-.9c0-.58.06-1 .18-1.28.17-.37.46-.68.88-.91.42-.24 1.01-.35 1.77-.35.49 0 1.03.05 1.63.14l-.26 1.27c-.37-.05-.71-.08-1.03-.08-.53 0-.9.1-1.12.28-.22.19-.33.54-.33 1.05v.78h2v1.12h-1.98v7.44h-1.74z"/><path class="fil2 str3" d="M179.56-70.46v-7.44h-1.54v-1.12h1.54v-.9c0-.58.06-1 .18-1.28.17-.37.46-.68.88-.91.42-.24 1.01-.35 1.77-.35.49 0 1.03.05 1.63.14l-.26 1.27c-.37-.05-.71-.08-1.03-.08-.53 0-.9.1-1.12.28-.22.19-.33.54-.33 1.05v.78h2v1.12h-1.98v7.44h-1.74z"/><path class="fil0 str0" d="M151.01-85.46h16.01c.55 0 1 .45 1 1v16c0 .55-.45 1-1 1h-16.01c-.55 0-1-.45-1-1v-16c0-.55.45-1 1-1z"/><path class="fil1" d="M157.56-70.46v-7.44h-1.55v-1.12h1.55v-.9c0-.58.06-1 .18-1.28.17-.37.46-.68.88-.91.42-.24 1.01-.35 1.77-.35.49 0 1.03.05 1.63.14l-.27 1.27c-.36-.05-.7-.08-1.02-.08-.53 0-.9.1-1.12.28-.22.19-.33.54-.33 1.05v.78h2v1.12h-1.98v7.44h-1.74z"/><path class="fil2 str1" d="M157.56-70.46v-7.44h-1.55v-1.12h1.55v-.9c0-.58.06-1 .18-1.28.17-.37.46-.68.88-.91.42-.24 1.01-.35 1.77-.35.49 0 1.03.05 1.63.14l-.27 1.27c-.36-.05-.7-.08-1.02-.08-.53 0-.9.1-1.12.28-.22.19-.33.54-.33 1.05v.78h2v1.12h-1.98v7.44h-1.74z"/><path class="fil5" d="M8.12-71.46v-4.15H4v-1.73h4.12v-4.12h1.76v4.12H14v1.73H9.88v4.15z"/><path class="fil2 str3" d="M8.12-71.46v-4.15H4v-1.73h4.12v-4.12h1.76v4.12H14v1.73H9.88v4.15z"/><path class="fil0 str0" d="m202.02-83.46 1.64 5.36 5.36-.01-4.34 3.3 1.67 5.35-4.33-3.32-4.33 3.32 1.67-5.35-4.34-3.3 5.35.01z"/><g id="_912991288"><path class="fil0" d="M15.92 9.77c.19-.2.46-.58.86-.61.91-.07.88-.01 1.18.29l1.48 1.48c.55.58.57 1.54-.02 2.16l-1.48 1.48c-.15.15-.18.28-.45.28-1.07.01-.9.04-1.58-.64-.66-.65-1.66-1.6-2.21-2.21l2.22-2.23zm-9.05 5.06c-.7 0-.47.08-1.11-.56-.23-.23-.43-.42-.65-.65-.35-.35-.97-.8-.97-1.62 0-.84.61-1.27.96-1.62.22-.22.42-.42.64-.63.65-.66.42-.59 1.13-.59.51 0 .71.32.95.55.29.3 2.17 2.13 2.25 2.29-.09.15-1.28 1.3-1.5 1.53-.26.26-.5.49-.76.75-.24.24-.42.55-.94.55zM3 11.71v.58c.07.14.12.54.21.76.26.64.88 1.16 1.39 1.67l1.02 1.02c.31.31.21.23.79.23.33 0 .66.03.97-.05.6-.14.9-.49 1.2-.8l2.04-2.04c.3-.29.63-.75 1.35-.71.63.04.97.49 1.25.77l2.04 2.03c.93.94 1.25.84 2.72.82.25-.01.23-.05.36-.18.73-.75 2.04-1.87 2.41-2.69.21-.44.17-.62.25-.79v-.66c-.1-.2-.09-.81-.65-1.41-.34-.37-.65-.68-1-1.04-.35-.34-.68-.66-1.02-1.02-.28-.28-.29-.19-.81-.19-1.2 0-1.4-.06-2.25.79l-2.03 2.04c-.27.27-.65.75-1.25.8-.7.05-1.04-.4-1.33-.69L8.62 8.91c-.31-.31-.61-.68-1.21-.83-.2-.05-1.24-.09-1.49-.06-.18.03-1.13 1.07-1.3 1.24-.53.52-1.13 1.01-1.4 1.66-.1.24-.15.64-.22.79z"/><path class="fil0" d="M8.88 6.6c.46-.41.93-.93 1.38-1.37.53-.54.89-1.05 1.67-1.09.89-.04 1.37.65 1.74 1.02l1.35 1.36c-.02.02-.56.36-.88.66-.43.4-2.09 2.15-2.28 2.25-.14-.19-.54-.55-.73-.74-.87-.87-1.29-1.38-2.25-2.09zM12.29 3h-.58c-.12.05-.31.07-.45.1-.93.26-1.54 1.05-2.28 1.8L6.66 7.22c.86.09 1.07.01 1.76.45.41.25 2.31 2.23 2.85 2.77.73.73.78.47 1.9-.65.45-.45 1.85-1.93 2.3-2.2.79-.48 1.25-.3 1.86-.38-.38-.34-.77-.77-1.15-1.15L15.02 4.9c-.39-.39-.78-.76-1.16-1.16-.53-.58-1.29-.61-1.57-.74zM8.88 17.4c.41-.33.29-.15.8-.65l2.17-2.19c.25.13 1.99 2.06 2.73 2.63.12.09.38.23.44.29-.42.47-.92.93-1.37 1.38-.38.37-.84 1.05-1.76.99-.41-.02-.74-.2-.96-.41-.4-.39-1.79-1.82-2.05-2.04zm2.84 3.6h.56c.12-.06.31-.06.46-.11.47-.13.78-.32 1.11-.64.51-.48 3.18-3.21 3.48-3.46-.32-.05-.66.01-1.02-.07-.3-.05-.59-.15-.82-.3-.92-.6-3.15-3.16-3.47-3.25-.36-.09-.57.21-.72.35-.58.58-2.39 2.45-2.84 2.78-.51.36-1.03.47-1.79.47.06.15 2.95 2.92 3.45 3.47.58.63 1.44.69 1.6.76z"/></g></g></svg>