<?xml version="1.0" encoding="UTF-8"?>
<!DOCTYPE svg PUBLIC "-//W3C//DTD SVG 1.1//EN" "http://www.w3.org/Graphics/SVG/1.1/DTD/svg11.dtd">
<!-- Creator: CorelDRAW 2018 -->
<svg xmlns="http://www.w3.org/2000/svg" xml:space="preserve" width="24px" height="24px" version="1.1" style="shape-rendering:geometricPrecision; text-rendering:geometricPrecision; image-rendering:optimizeQuality; fill-rule:evenodd; clip-rule:evenodd"
viewBox="0 0 24 24"
 xmlns:xlink="http://www.w3.org/1999/xlink">
 <defs>
  <style type="text/css">
   <![CDATA[
    .str0 {stroke:black;stroke-width:2.36;stroke-miterlimit:22.9256}
    .str2 {stroke:white;stroke-width:2.36;stroke-miterlimit:22.9256}
    .str3 {stroke:black;stroke-width:0.9;stroke-miterlimit:22.9256}
    .str1 {stroke:white;stroke-width:0.9;stroke-miterlimit:22.9256}
    .fil3 {fill:none}
    .fil2 {fill:none;fill-rule:nonzero}
    .fil0 {fill:black}
    .fil4 {fill:white}
    .fil5 {fill:black;fill-rule:nonzero}
    .fil1 {fill:white;fill-rule:nonzero}
   ]]>
  </style>
 </defs>
 <g id="Layer_x0020_1">
  <metadata id="CorelCorpID_0Corel-Layer"/>
  <circle class="fil0 str0" cx="-13.74" cy="-76.46" r="9"/>
  <polygon class="fil1" points="-14.62,-71.46 -14.62,-75.61 -18.74,-75.61 -18.74,-77.34 -14.62,-77.34 -14.62,-81.46 -12.86,-81.46 -12.86,-77.34 -8.74,-77.34 -8.74,-75.61 -12.86,-75.61 -12.86,-71.46 "/>
  <polygon id="1" class="fil2 str1" points="-14.62,-71.46 -14.62,-75.61 -18.74,-75.61 -18.74,-77.34 -14.62,-77.34 -14.62,-81.46 -12.86,-81.46 -12.86,-77.34 -8.74,-77.34 -8.74,-75.61 -12.86,-75.61 -12.86,-71.46 "/>
  <circle class="fil3 str0" cx="9" cy="-76.46" r="9"/>
  <path class="fil3 str0" d="M43.1 -84.42l11.8 0c0.06,0 0.1,0.05 0.1,0.1l0 15.68c0,0.04 -0.02,0.07 -0.06,0.09 -0.03,0.02 -0.07,0.01 -0.1,-0.02l-5.03 -4.64c-0.03,-0.03 -0.08,-0.03 -0.12,0l-6.53 4.68c-0.03,0.03 -0.07,0.03 -0.1,0.01 -0.04,-0.02 -0.06,-0.05 -0.06,-0.09 0,-5.23 0,-10.47 0,-15.71 0,-0.05 0.05,-0.1 0.1,-0.1z"/>
  <path class="fil0 str0" d="M24.29 -84.42l11.8 0c0.06,0 0.1,0.05 0.1,0.1l0 15.68c0,0.04 -0.02,0.07 -0.06,0.09 -0.04,0.02 -0.08,0.01 -0.11,-0.02l-5.02 -4.64c-0.03,-0.03 -0.09,-0.03 -0.12,0l-6.53 4.68c-0.03,0.03 -0.07,0.03 -0.11,0.01 -0.03,-0.02 -0.05,-0.05 -0.05,-0.09 0,-5.23 0,-10.47 0,-15.71 0,-0.05 0.05,-0.1 0.1,-0.1z"/>
  <polygon class="fil3 str0" points="222.68,-83.46 224.33,-78.1 229.68,-78.11 225.35,-74.81 227.01,-69.46 222.68,-72.78 218.36,-69.46 220.02,-74.81 215.68,-78.11 221.04,-78.1 "/>
  <circle class="fil3 str0" cx="136.12" cy="-76.46" r="9"/>
  <polygon class="fil0 str0" points="139.12,-76.46 136.12,-74.96 133.12,-73.46 133.12,-76.46 133.12,-79.46 136.12,-77.96 "/>
  <circle class="fil0 str0" cx="114.12" cy="-76.46" r="9"/>
  <polygon class="fil4 str2" points="117.12,-76.46 114.12,-74.96 111.12,-73.46 111.12,-76.46 111.12,-79.46 114.12,-77.96 "/>
  <circle class="fil3 str0" cx="69.29" cy="-76.46" r="9"/>
  <path class="fil5" d="M67.84 -70.46l0 -7.44 -1.55 0 0 -1.12 1.55 0 0 -0.9c0,-0.58 0.06,-1 0.18,-1.28 0.17,-0.37 0.46,-0.68 0.88,-0.91 0.42,-0.24 1.01,-0.35 1.77,-0.35 0.49,0 1.03,0.05 1.62,0.14l-0.26 1.27c-0.36,-0.05 -0.7,-0.08 -1.02,-0.08 -0.53,0 -0.9,0.1 -1.12,0.28 -0.22,0.19 -0.33,0.54 -0.33,1.05l0 0.78 2 0 0 1.12 -1.98 0 0 7.44 -1.74 0z"/>
  <path id="1" class="fil2 str3" d="M67.84 -70.46l0 -7.44 -1.55 0 0 -1.12 1.55 0 0 -0.9c0,-0.58 0.06,-1 0.18,-1.28 0.17,-0.37 0.46,-0.68 0.88,-0.91 0.42,-0.24 1.01,-0.35 1.77,-0.35 0.49,0 1.03,0.05 1.62,0.14l-0.26 1.27c-0.36,-0.05 -0.7,-0.08 -1.02,-0.08 -0.53,0 -0.9,0.1 -1.12,0.28 -0.22,0.19 -0.33,0.54 -0.33,1.05l0 0.78 2 0 0 1.12 -1.98 0 0 7.44 -1.74 0z"/>
  <circle class="fil0 str0" cx="92.12" cy="-76.46" r="9"/>
  <path class="fil1" d="M90.66 -70.46l0 -7.44 -1.54 0 0 -1.12 1.54 0 0 -0.9c0,-0.58 0.06,-1 0.18,-1.28 0.17,-0.37 0.46,-0.68 0.88,-0.91 0.42,-0.24 1.01,-0.35 1.77,-0.35 0.49,0 1.03,0.05 1.63,0.14l-0.26 1.27c-0.37,-0.05 -0.71,-0.08 -1.03,-0.08 -0.53,0 -0.9,0.1 -1.12,0.28 -0.22,0.19 -0.33,0.54 -0.33,1.05l0 0.78 2 0 0 1.12 -1.98 0 0 7.44 -1.74 0z"/>
  <path id="1" class="fil2 str1" d="M90.66 -70.46l0 -7.44 -1.54 0 0 -1.12 1.54 0 0 -0.9c0,-0.58 0.06,-1 0.18,-1.28 0.17,-0.37 0.46,-0.68 0.88,-0.91 0.42,-0.24 1.01,-0.35 1.77,-0.35 0.49,0 1.03,0.05 1.63,0.14l-0.26 1.27c-0.37,-0.05 -0.71,-0.08 -1.03,-0.08 -0.53,0 -0.9,0.1 -1.12,0.28 -0.22,0.19 -0.33,0.54 -0.33,1.05l0 0.78 2 0 0 1.12 -1.98 0 0 7.44 -1.74 0z"/>
  <path class="fil3 str0" d="M173.02 -85.46l16 0c0.55,0 1,0.45 1,1l0 16c0,0.55 -0.45,1 -1,1l-16 0c-0.55,0 -1,-0.45 -1,-1l0 -16c0,-0.55 0.45,-1 1,-1z"/>
  <path class="fil5" d="M179.56 -70.46l0 -7.44 -1.54 0 0 -1.12 1.54 0 0 -0.9c0,-0.58 0.06,-1 0.18,-1.28 0.17,-0.37 0.46,-0.68 0.88,-0.91 0.42,-0.24 1.01,-0.35 1.77,-0.35 0.49,0 1.03,0.05 1.63,0.14l-0.26 1.27c-0.37,-0.05 -0.71,-0.08 -1.03,-0.08 -0.53,0 -0.9,0.1 -1.12,0.28 -0.22,0.19 -0.33,0.54 -0.33,1.05l0 0.78 2 0 0 1.12 -1.98 0 0 7.44 -1.74 0z"/>
  <path id="1" class="fil2 str3" d="M179.56 -70.46l0 -7.44 -1.54 0 0 -1.12 1.54 0 0 -0.9c0,-0.58 0.06,-1 0.18,-1.28 0.17,-0.37 0.46,-0.68 0.88,-0.91 0.42,-0.24 1.01,-0.35 1.77,-0.35 0.49,0 1.03,0.05 1.63,0.14l-0.26 1.27c-0.37,-0.05 -0.71,-0.08 -1.03,-0.08 -0.53,0 -0.9,0.1 -1.12,0.28 -0.22,0.19 -0.33,0.54 -0.33,1.05l0 0.78 2 0 0 1.12 -1.98 0 0 7.44 -1.74 0z"/>
  <path class="fil0 str0" d="M151.01 -85.46l16.01 0c0.55,0 1,0.45 1,1l0 16c0,0.55 -0.45,1 -1,1l-16.01 0c-0.55,0 -1,-0.45 -1,-1l0 -16c0,-0.55 0.45,-1 1,-1z"/>
  <path class="fil1" d="M157.56 -70.46l0 -7.44 -1.55 0 0 -1.12 1.55 0 0 -0.9c0,-0.58 0.06,-1 0.18,-1.28 0.17,-0.37 0.46,-0.68 0.88,-0.91 0.42,-0.24 1.01,-0.35 1.77,-0.35 0.49,0 1.03,0.05 1.63,0.14l-0.27 1.27c-0.36,-0.05 -0.7,-0.08 -1.02,-0.08 -0.53,0 -0.9,0.1 -1.12,0.28 -0.22,0.19 -0.33,0.54 -0.33,1.05l0 0.78 2 0 0 1.12 -1.98 0 0 7.44 -1.74 0z"/>
  <path id="1" class="fil2 str1" d="M157.56 -70.46l0 -7.44 -1.55 0 0 -1.12 1.55 0 0 -0.9c0,-0.58 0.06,-1 0.18,-1.28 0.17,-0.37 0.46,-0.68 0.88,-0.91 0.42,-0.24 1.01,-0.35 1.77,-0.35 0.49,0 1.03,0.05 1.63,0.14l-0.27 1.27c-0.36,-0.05 -0.7,-0.08 -1.02,-0.08 -0.53,0 -0.9,0.1 -1.12,0.28 -0.22,0.19 -0.33,0.54 -0.33,1.05l0 0.78 2 0 0 1.12 -1.98 0 0 7.44 -1.74 0z"/>
  <polygon class="fil5" points="8.12,-71.46 8.12,-75.61 4,-75.61 4,-77.34 8.12,-77.34 8.12,-81.46 9.88,-81.46 9.88,-77.34 14,-77.34 14,-75.61 9.88,-75.61 9.88,-71.46 "/>
  <polygon id="1" class="fil2 str3" points="8.12,-71.46 8.12,-75.61 4,-75.61 4,-77.34 8.12,-77.34 8.12,-81.46 9.88,-81.46 9.88,-77.34 14,-77.34 14,-75.61 9.88,-75.61 9.88,-71.46 "/>
  <polygon class="fil0 str0" points="202.02,-83.46 203.66,-78.1 209.02,-78.11 204.68,-74.81 206.35,-69.46 202.02,-72.78 197.69,-69.46 199.36,-74.81 195.02,-78.11 200.37,-78.1 "/>
  <g id="_912991288">
   <path class="fil0" d="M15.92 9.77c0.19,-0.2 0.46,-0.58 0.86,-0.61 0.91,-0.07 0.88,-0.01 1.18,0.29l1.48 1.48c0.55,0.58 0.57,1.54 -0.02,2.16l-1.48 1.48c-0.15,0.15 -0.18,0.28 -0.45,0.28 -1.07,0.01 -0.9,0.04 -1.58,-0.64 -0.66,-0.65 -1.66,-1.6 -2.21,-2.21l2.22 -2.23zm-9.05 5.06c-0.7,0 -0.47,0.08 -1.11,-0.56 -0.23,-0.23 -0.43,-0.42 -0.65,-0.65 -0.35,-0.35 -0.97,-0.8 -0.97,-1.62 0,-0.84 0.61,-1.27 0.96,-1.62 0.22,-0.22 0.42,-0.42 0.64,-0.63 0.65,-0.66 0.42,-0.59 1.13,-0.59 0.51,0 0.71,0.32 0.95,0.55 0.29,0.3 2.17,2.13 2.25,2.29 -0.09,0.15 -1.28,1.3 -1.5,1.53 -0.26,0.26 -0.5,0.49 -0.76,0.75 -0.24,0.24 -0.42,0.55 -0.94,0.55zm-3.87 -3.12l0 0.58c0.07,0.14 0.12,0.54 0.21,0.76 0.26,0.64 0.88,1.16 1.39,1.67 0.35,0.35 0.67,0.67 1.02,1.02 0.31,0.31 0.21,0.23 0.79,0.23 0.33,0 0.66,0.03 0.97,-0.05 0.6,-0.14 0.9,-0.49 1.2,-0.8l2.04 -2.04c0.3,-0.29 0.63,-0.75 1.35,-0.71 0.63,0.04 0.97,0.49 1.25,0.77l2.04 2.03c0.93,0.94 1.25,0.84 2.72,0.82 0.25,-0.01 0.23,-0.05 0.36,-0.18 0.73,-0.75 2.04,-1.87 2.41,-2.69 0.21,-0.44 0.17,-0.62 0.25,-0.79l0 -0.66c-0.1,-0.2 -0.09,-0.81 -0.65,-1.41 -0.34,-0.37 -0.65,-0.68 -1,-1.04 -0.35,-0.34 -0.68,-0.66 -1.02,-1.02 -0.28,-0.28 -0.29,-0.19 -0.81,-0.19 -1.2,0 -1.4,-0.06 -2.25,0.79l-2.03 2.04c-0.27,0.27 -0.65,0.75 -1.25,0.8 -0.7,0.05 -1.04,-0.4 -1.33,-0.69l-2.04 -2.04c-0.31,-0.31 -0.61,-0.68 -1.21,-0.83 -0.2,-0.05 -1.24,-0.09 -1.49,-0.06 -0.18,0.03 -1.13,1.07 -1.3,1.24 -0.53,0.52 -1.13,1.01 -1.4,1.66 -0.1,0.24 -0.15,0.64 -0.22,0.79z"/>
   <path class="fil0" d="M8.88 6.6c0.46,-0.41 0.93,-0.93 1.38,-1.37 0.53,-0.54 0.89,-1.05 1.67,-1.09 0.89,-0.04 1.37,0.65 1.74,1.02l1.35 1.36c-0.02,0.02 -0.56,0.36 -0.88,0.66 -0.43,0.4 -2.09,2.15 -2.28,2.25 -0.14,-0.19 -0.54,-0.55 -0.73,-0.74 -0.87,-0.87 -1.29,-1.38 -2.25,-2.09zm3.41 -3.6l-0.58 0c-0.12,0.05 -0.31,0.07 -0.45,0.1 -0.93,0.26 -1.54,1.05 -2.28,1.8l-2.32 2.32c0.86,0.09 1.07,0.01 1.76,0.45 0.41,0.25 2.31,2.23 2.85,2.77 0.73,0.73 0.78,0.47 1.9,-0.65 0.45,-0.45 1.85,-1.93 2.3,-2.2 0.79,-0.48 1.25,-0.3 1.86,-0.38 -0.38,-0.34 -0.77,-0.77 -1.15,-1.15 -0.39,-0.39 -0.76,-0.76 -1.16,-1.16 -0.39,-0.39 -0.78,-0.76 -1.16,-1.16 -0.53,-0.58 -1.29,-0.61 -1.57,-0.74z"/>
   <path class="fil0" d="M8.88 17.4c0.41,-0.33 0.29,-0.15 0.8,-0.65l2.17 -2.19c0.25,0.13 1.99,2.06 2.73,2.63 0.12,0.09 0.38,0.23 0.44,0.29 -0.42,0.47 -0.92,0.93 -1.37,1.38 -0.38,0.37 -0.84,1.05 -1.76,0.99 -0.41,-0.02 -0.74,-0.2 -0.96,-0.41 -0.4,-0.39 -1.79,-1.82 -2.05,-2.04zm2.84 3.6l0.56 0c0.12,-0.06 0.31,-0.06 0.46,-0.11 0.47,-0.13 0.78,-0.32 1.11,-0.64 0.51,-0.48 3.18,-3.21 3.48,-3.46 -0.32,-0.05 -0.66,0.01 -1.02,-0.07 -0.3,-0.05 -0.59,-0.15 -0.82,-0.3 -0.92,-0.6 -3.15,-3.16 -3.47,-3.25 -0.36,-0.09 -0.57,0.21 -0.72,0.35 -0.58,0.58 -2.39,2.45 -2.84,2.78 -0.51,0.36 -1.03,0.47 -1.79,0.47 0.06,0.15 2.95,2.92 3.45,3.47 0.58,0.63 1.44,0.69 1.6,0.76z"/>
  </g>
 </g>
</svg>
