<svg xmlns="http://www.w3.org/2000/svg" xml:space="preserve" width="24" height="24" style="shape-rendering:geometricPrecision;text-rendering:geometricPrecision;image-rendering:optimizeQuality;fill-rule:evenodd;clip-rule:evenodd"><defs><style>.str0,.str1,.str3{stroke:#000;stroke-width:2.36;stroke-miterlimit:22.9256}.str1,.str3{stroke-width:.9}.str1{stroke:#fff}.fil2,.fil3{fill:none}.fil2{fill-rule:nonzero}.fil0{fill:#000}.fil1,.fil5{fill:#000;fill-rule:nonzero}.fil1{fill:#fff}</style></defs><g id="Layer_x0020_1"><circle class="fil0 str0" cx="-13.74" cy="-76.46" r="9"/><path class="fil1" d="M-14.62-71.46v-4.15h-4.12v-1.73h4.12v-4.12h1.76v4.12h4.12v1.73h-4.12v4.15z"/><path id="1" class="fil2 str1" d="M-14.62-71.46v-4.15h-4.12v-1.73h4.12v-4.12h1.76v4.12h4.12v1.73h-4.12v4.15z"/><circle class="fil3 str0" cx="9" cy="-76.46" r="9"/><path class="fil3 str0" d="M43.1-84.42h11.8c.06 0 .1.05.1.1v15.68c0 .04-.02.07-.06.09-.03.02-.07.01-.1-.02l-5.03-4.64c-.03-.03-.08-.03-.12 0l-6.53 4.68c-.03.03-.07.03-.1.01-.04-.02-.06-.05-.06-.09v-15.71c0-.05.05-.1.1-.1z"/><path class="fil0 str0" d="M24.29-84.42h11.8c.06 0 .1.05.1.1v15.68c0 .04-.02.07-.06.09-.04.02-.08.01-.11-.02L31-73.21a.091.091 0 0 0-.12 0l-6.53 4.68c-.03.03-.07.03-.11.01a.105.105 0 0 1-.05-.09v-15.71c0-.05.05-.1.1-.1z"/><path class="fil3 str0" d="m222.68-83.46 1.65 5.36 5.35-.01-4.33 3.3 1.66 5.35-4.33-3.32-4.32 3.32 1.66-5.35-4.34-3.3 5.36.01z"/><circle class="fil3 str0" cx="136.12" cy="-76.46" r="9"/><path class="fil0 str0" d="m139.12-76.46-3 1.5-3 1.5v-6l3 1.5z"/><circle class="fil0 str0" cx="114.12" cy="-76.46" r="9"/><path style="fill:#fff;stroke:#fff;stroke-width:2.36;stroke-miterlimit:22.9256" d="m117.12-76.46-3 1.5-3 1.5v-6l3 1.5z"/><circle class="fil3 str0" cx="69.29" cy="-76.46" r="9"/><path class="fil5" d="M67.84-70.46v-7.44h-1.55v-1.12h1.55v-.9c0-.58.06-1 .18-1.28.17-.37.46-.68.88-.91.42-.24 1.01-.35 1.77-.35.49 0 1.03.05 1.62.14l-.26 1.27c-.36-.05-.7-.08-1.02-.08-.53 0-.9.1-1.12.28-.22.19-.33.54-.33 1.05v.78h2v1.12h-1.98v7.44h-1.74z"/><path class="fil2 str3" d="M67.84-70.46v-7.44h-1.55v-1.12h1.55v-.9c0-.58.06-1 .18-1.28.17-.37.46-.68.88-.91.42-.24 1.01-.35 1.77-.35.49 0 1.03.05 1.62.14l-.26 1.27c-.36-.05-.7-.08-1.02-.08-.53 0-.9.1-1.12.28-.22.19-.33.54-.33 1.05v.78h2v1.12h-1.98v7.44h-1.74z"/><circle class="fil0 str0" cx="92.12" cy="-76.46" r="9"/><path class="fil1" d="M90.66-70.46v-7.44h-1.54v-1.12h1.54v-.9c0-.58.06-1 .18-1.28.17-.37.46-.68.88-.91.42-.24 1.01-.35 1.77-.35.49 0 1.03.05 1.63.14l-.26 1.27c-.37-.05-.71-.08-1.03-.08-.53 0-.9.1-1.12.28-.22.19-.33.54-.33 1.05v.78h2v1.12H92.4v7.44h-1.74z"/><path class="fil2 str1" d="M90.66-70.46v-7.44h-1.54v-1.12h1.54v-.9c0-.58.06-1 .18-1.28.17-.37.46-.68.88-.91.42-.24 1.01-.35 1.77-.35.49 0 1.03.05 1.63.14l-.26 1.27c-.37-.05-.71-.08-1.03-.08-.53 0-.9.1-1.12.28-.22.19-.33.54-.33 1.05v.78h2v1.12H92.4v7.44h-1.74z"/><path class="fil3 str0" d="M173.02-85.46h16c.55 0 1 .45 1 1v16c0 .55-.45 1-1 1h-16c-.55 0-1-.45-1-1v-16c0-.55.45-1 1-1z"/><path class="fil5" d="M179.56-70.46v-7.44h-1.54v-1.12h1.54v-.9c0-.58.06-1 .18-1.28.17-.37.46-.68.88-.91.42-.24 1.01-.35 1.77-.35.49 0 1.03.05 1.63.14l-.26 1.27c-.37-.05-.71-.08-1.03-.08-.53 0-.9.1-1.12.28-.22.19-.33.54-.33 1.05v.78h2v1.12h-1.98v7.44h-1.74z"/><path class="fil2 str3" d="M179.56-70.46v-7.44h-1.54v-1.12h1.54v-.9c0-.58.06-1 .18-1.28.17-.37.46-.68.88-.91.42-.24 1.01-.35 1.77-.35.49 0 1.03.05 1.63.14l-.26 1.27c-.37-.05-.71-.08-1.03-.08-.53 0-.9.1-1.12.28-.22.19-.33.54-.33 1.05v.78h2v1.12h-1.98v7.44h-1.74z"/><path class="fil0 str0" d="M151.01-85.46h16.01c.55 0 1 .45 1 1v16c0 .55-.45 1-1 1h-16.01c-.55 0-1-.45-1-1v-16c0-.55.45-1 1-1z"/><path class="fil1" d="M157.56-70.46v-7.44h-1.55v-1.12h1.55v-.9c0-.58.06-1 .18-1.28.17-.37.46-.68.88-.91.42-.24 1.01-.35 1.77-.35.49 0 1.03.05 1.63.14l-.27 1.27c-.36-.05-.7-.08-1.02-.08-.53 0-.9.1-1.12.28-.22.19-.33.54-.33 1.05v.78h2v1.12h-1.98v7.44h-1.74z"/><path class="fil2 str1" d="M157.56-70.46v-7.44h-1.55v-1.12h1.55v-.9c0-.58.06-1 .18-1.28.17-.37.46-.68.88-.91.42-.24 1.01-.35 1.77-.35.49 0 1.03.05 1.63.14l-.27 1.27c-.36-.05-.7-.08-1.02-.08-.53 0-.9.1-1.12.28-.22.19-.33.54-.33 1.05v.78h2v1.12h-1.98v7.44h-1.74z"/><path class="fil5" d="M8.12-71.46v-4.15H4v-1.73h4.12v-4.12h1.76v4.12H14v1.73H9.88v4.15z"/><path class="fil2 str3" d="M8.12-71.46v-4.15H4v-1.73h4.12v-4.12h1.76v4.12H14v1.73H9.88v4.15z"/><path class="fil0 str0" d="m202.02-83.46 1.64 5.36 5.36-.01-4.34 3.3 1.67 5.35-4.33-3.32-4.33 3.32 1.67-5.35-4.34-3.3 5.35.01z"/><g id="_614931280"><path class="fil0" d="M253.82-76.93c.19-.19.45-.58.86-.61.91-.07.88-.01 1.18.29l1.47 1.48c.56.58.57 1.55-.02 2.16l-1.47 1.48c-.15.15-.19.28-.46.28-1.06.01-.9.04-1.58-.64-.65-.65-1.65-1.6-2.21-2.21l2.23-2.23zm-9.06 5.07c-.7 0-.47.07-1.11-.57l-.65-.65c-.35-.35-.96-.79-.96-1.62 0-.84.61-1.27.96-1.62l.63-.63c.66-.66.43-.59 1.13-.59.52 0 .72.32.95.56.3.29 2.17 2.12 2.26 2.28-.09.15-1.28 1.3-1.51 1.53l-.75.75c-.24.24-.43.56-.95.56zm-3.86-3.12v.57c.06.15.12.54.21.76.26.64.88 1.16 1.39 1.67l1.02 1.02c.31.32.21.24.79.24.32 0 .65.02.97-.05.6-.15.89-.5 1.2-.81l2.04-2.03c.3-.3.62-.76 1.34-.72.64.04.98.49 1.26.77l2.04 2.04c.93.93 1.24.83 2.72.81.25 0 .23-.04.36-.18.73-.75 2.04-1.87 2.41-2.68.2-.45.16-.63.25-.8v-.66c-.1-.19-.09-.8-.65-1.41-.34-.37-.66-.68-1.01-1.03l-1.02-1.02c-.27-.28-.28-.2-.8-.2-1.21 0-1.4-.05-2.25.8l-2.04 2.04c-.27.27-.64.74-1.24.79-.7.05-1.05-.4-1.34-.69l-2.03-2.04c-.31-.31-.61-.67-1.21-.83-.21-.05-1.25-.09-1.5-.05-.17.02-1.13 1.06-1.3 1.23-.52.52-1.12 1.01-1.39 1.66-.1.24-.15.64-.22.8z"/><path class="fil0" d="M246.78-80.1c.46-.41.93-.92 1.37-1.37.54-.54.9-1.05 1.68-1.08.89-.04 1.37.64 1.74 1.01l1.34 1.36c-.02.02-.55.36-.87.66-.43.4-2.09 2.15-2.29 2.26-.13-.2-.53-.56-.73-.75-.86-.87-1.28-1.38-2.24-2.09zm3.4-3.6h-.57c-.12.06-.32.07-.45.11-.94.25-1.54 1.04-2.29 1.79l-2.31 2.32c.85.1 1.07.01 1.76.45.4.26 2.31 2.24 2.85 2.78.73.72.78.46 1.89-.66.46-.45 1.86-1.93 2.3-2.2.8-.47 1.26-.3 1.87-.38-.38-.34-.78-.77-1.15-1.15-.4-.39-.77-.76-1.16-1.16-.39-.39-.79-.76-1.16-1.16-.53-.58-1.3-.61-1.58-.74zM246.78-69.29c.41-.34.28-.16.8-.66l2.17-2.18c.25.12 1.99 2.05 2.73 2.62.12.09.37.23.43.3-.42.46-.91.92-1.36 1.37-.38.38-.85 1.05-1.76.99-.41-.02-.75-.2-.97-.41-.4-.39-1.78-1.82-2.04-2.03zm2.84 3.59h.56c.12-.05.31-.06.45-.1.47-.14.79-.32 1.12-.65.5-.48 3.17-3.21 3.48-3.46-.32-.05-.66.01-1.03-.06-.29-.06-.58-.16-.81-.31-.92-.59-3.15-3.16-3.47-3.24-.37-.1-.58.2-.72.34-.58.58-2.39 2.45-2.85 2.78-.5.36-1.02.47-1.78.47.05.16 2.94 2.93 3.45 3.48.57.62 1.44.68 1.6.75z"/></g><g id="_614914360"><path class="fil0" d="M3 11.21v.58c.16.34.03.67.59 1.41l2.03 2.04c.31.31.21.24.79.24 1.17 0 1.35-.04 2.17-.86L9.6 13.6l1.02-1.02c.3-.29.63-.75 1.35-.71.63.04.97.49 1.25.77l2.04 2.03c.18.18.3.35.52.5.59.39 1.43.34 2.2.32.21-.01.24-.1.34-.2l1.53-1.53c.78-.77.84-.81 1.11-1.81l.04-.12v-.66l-.03-.09c-.09-.29-.03-.29-.21-.7-.11-.25-.25-.46-.39-.63l-2.04-2.04c-.26-.27-.26-.2-.85-.2-.66 0-1.17-.06-1.71.34-.25.17-1.29 1.25-1.55 1.51l-1.02 1.02c-.27.27-.62.73-1.24.76-.7.04-1.03-.41-1.32-.71L8.6 8.39c-.83-.83-.99-.87-2.19-.87-.58 0-.48-.08-.79.23L3.59 9.8c-.54.7-.44 1.09-.59 1.41z"/><path class="fil0" d="M11.72 20.5h.56c.12-.06.31-.06.46-.11.39-.11.87-.36 1.13-.63l3.46-3.47c-.5-.08-1.09.09-1.84-.37-.65-.4-2.2-2.06-2.87-2.72-.52-.53-.65-.85-1.32-.18-.19.2-.36.37-.56.56-.42.42-1.92 1.98-2.28 2.22-.53.36-1.02.47-1.79.47.15.22 3.06 3.06 3.47 3.49.56.61 1.43.67 1.58.74zM12.29 2.5h-.58c-.12.05-.31.07-.45.1-.42.12-.83.34-1.12.64-.39.4-.77.77-1.16 1.16L6.66 6.72c.81.09 1.13.01 1.76.45.48.33 2.26 2.18 2.85 2.77.73.73.78.47 1.9-.65.46-.46 1.84-1.92 2.3-2.2.8-.48 1.25-.3 1.86-.38-.38-.34-.77-.77-1.15-1.15-.67-.67-1.72-1.67-2.32-2.32-.56-.61-1.41-.66-1.57-.74zM13.7 11.5c.55.61 1.55 1.56 2.21 2.21.68.68.51.65 1.58.64.27 0 .3-.13.45-.28l1.48-1.48c.59-.61.57-1.58.02-2.16l-1.48-1.48c-.3-.3-.27-.36-1.18-.29-.4.03-.67.41-.86.61L13.7 11.5zM6.44 14.33c.89 0 .82.01 1.37-.55.3-.29 2.17-2.12 2.26-2.28-.08-.15-1.27-1.31-1.5-1.53-.26-.26-.49-.49-.75-.76-.56-.56-.51-.55-1.38-.55-.2 0-.46.34-.69.57l-.65.65c-.35.35-.96.78-.96 1.62 0 .84.61 1.27.97 1.62l.95.95c.1.11.19.26.38.26z"/><path class="fil0" d="M8.88 6.11c.15.11.27.17.42.29.13.1.27.24.38.35l2.18 2.18c.3-.15 2.02-2.11 2.7-2.6.12-.09.38-.24.46-.31l-1.37-1.38c-.37-.37-.85-1.06-1.76-.99-.75.05-1.14.58-1.65 1.09L8.88 6.11zM8.88 16.9c.26.22 1.65 1.65 2.05 2.04.22.21.55.39.96.41.92.06 1.38-.61 1.76-.99.45-.45.95-.91 1.37-1.38l-.86-.64c-.43-.4-2.11-2.18-2.31-2.28-.1.15-2.32 2.36-2.55 2.54-.15.11-.28.19-.42.3z"/></g></g></svg>