<?xml version="1.0" encoding="UTF-8"?>
<!DOCTYPE svg PUBLIC "-//W3C//DTD SVG 1.1//EN" "http://www.w3.org/Graphics/SVG/1.1/DTD/svg11.dtd">
<!-- Creator: CorelDRAW 2018 -->
<svg xmlns="http://www.w3.org/2000/svg" xml:space="preserve" width="24px" height="24px" version="1.1" style="shape-rendering:geometricPrecision; text-rendering:geometricPrecision; image-rendering:optimizeQuality; fill-rule:evenodd; clip-rule:evenodd"
viewBox="0 0 24 24"
 xmlns:xlink="http://www.w3.org/1999/xlink">
 <defs>
  <style type="text/css">
   <![CDATA[
    .str0 {stroke:black;stroke-width:2.36;stroke-miterlimit:22.9256}
    .str2 {stroke:white;stroke-width:2.36;stroke-miterlimit:22.9256}
    .str3 {stroke:black;stroke-width:0.9;stroke-miterlimit:22.9256}
    .str1 {stroke:white;stroke-width:0.9;stroke-miterlimit:22.9256}
    .fil3 {fill:none}
    .fil2 {fill:none;fill-rule:nonzero}
    .fil0 {fill:black}
    .fil4 {fill:white}
    .fil5 {fill:black;fill-rule:nonzero}
    .fil1 {fill:white;fill-rule:nonzero}
   ]]>
  </style>
 </defs>
 <g id="Layer_x0020_1">
  <metadata id="CorelCorpID_0Corel-Layer"/>
  <circle class="fil0 str0" cx="-13.74" cy="-76.46" r="9"/>
  <polygon class="fil1" points="-14.62,-71.46 -14.62,-75.61 -18.74,-75.61 -18.74,-77.34 -14.62,-77.34 -14.62,-81.46 -12.86,-81.46 -12.86,-77.34 -8.74,-77.34 -8.74,-75.61 -12.86,-75.61 -12.86,-71.46 "/>
  <polygon id="1" class="fil2 str1" points="-14.62,-71.46 -14.62,-75.61 -18.74,-75.61 -18.74,-77.34 -14.62,-77.34 -14.62,-81.46 -12.86,-81.46 -12.86,-77.34 -8.74,-77.34 -8.74,-75.61 -12.86,-75.61 -12.86,-71.46 "/>
  <circle class="fil3 str0" cx="9" cy="-76.46" r="9"/>
  <path class="fil3 str0" d="M43.1 -84.42l11.8 0c0.06,0 0.1,0.05 0.1,0.1l0 15.68c0,0.04 -0.02,0.07 -0.06,0.09 -0.03,0.02 -0.07,0.01 -0.1,-0.02l-5.03 -4.64c-0.03,-0.03 -0.08,-0.03 -0.12,0l-6.53 4.68c-0.03,0.03 -0.07,0.03 -0.1,0.01 -0.04,-0.02 -0.06,-0.05 -0.06,-0.09 0,-5.23 0,-10.47 0,-15.71 0,-0.05 0.05,-0.1 0.1,-0.1z"/>
  <path class="fil0 str0" d="M24.29 -84.42l11.8 0c0.06,0 0.1,0.05 0.1,0.1l0 15.68c0,0.04 -0.02,0.07 -0.06,0.09 -0.04,0.02 -0.08,0.01 -0.11,-0.02l-5.02 -4.64c-0.03,-0.03 -0.09,-0.03 -0.12,0l-6.53 4.68c-0.03,0.03 -0.07,0.03 -0.11,0.01 -0.03,-0.02 -0.05,-0.05 -0.05,-0.09 0,-5.23 0,-10.47 0,-15.71 0,-0.05 0.05,-0.1 0.1,-0.1z"/>
  <polygon class="fil3 str0" points="222.68,-83.46 224.33,-78.1 229.68,-78.11 225.35,-74.81 227.01,-69.46 222.68,-72.78 218.36,-69.46 220.02,-74.81 215.68,-78.11 221.04,-78.1 "/>
  <circle class="fil3 str0" cx="136.12" cy="-76.46" r="9"/>
  <polygon class="fil0 str0" points="139.12,-76.46 136.12,-74.96 133.12,-73.46 133.12,-76.46 133.12,-79.46 136.12,-77.96 "/>
  <circle class="fil0 str0" cx="114.12" cy="-76.46" r="9"/>
  <polygon class="fil4 str2" points="117.12,-76.46 114.12,-74.96 111.12,-73.46 111.12,-76.46 111.12,-79.46 114.12,-77.96 "/>
  <circle class="fil3 str0" cx="69.29" cy="-76.46" r="9"/>
  <path class="fil5" d="M67.84 -70.46l0 -7.44 -1.55 0 0 -1.12 1.55 0 0 -0.9c0,-0.58 0.06,-1 0.18,-1.28 0.17,-0.37 0.46,-0.68 0.88,-0.91 0.42,-0.24 1.01,-0.35 1.77,-0.35 0.49,0 1.03,0.05 1.62,0.14l-0.26 1.27c-0.36,-0.05 -0.7,-0.08 -1.02,-0.08 -0.53,0 -0.9,0.1 -1.12,0.28 -0.22,0.19 -0.33,0.54 -0.33,1.05l0 0.78 2 0 0 1.12 -1.98 0 0 7.44 -1.74 0z"/>
  <path id="1" class="fil2 str3" d="M67.84 -70.46l0 -7.44 -1.55 0 0 -1.12 1.55 0 0 -0.9c0,-0.58 0.06,-1 0.18,-1.28 0.17,-0.37 0.46,-0.68 0.88,-0.91 0.42,-0.24 1.01,-0.35 1.77,-0.35 0.49,0 1.03,0.05 1.62,0.14l-0.26 1.27c-0.36,-0.05 -0.7,-0.08 -1.02,-0.08 -0.53,0 -0.9,0.1 -1.12,0.28 -0.22,0.19 -0.33,0.54 -0.33,1.05l0 0.78 2 0 0 1.12 -1.98 0 0 7.44 -1.74 0z"/>
  <circle class="fil0 str0" cx="92.12" cy="-76.46" r="9"/>
  <path class="fil1" d="M90.66 -70.46l0 -7.44 -1.54 0 0 -1.12 1.54 0 0 -0.9c0,-0.58 0.06,-1 0.18,-1.28 0.17,-0.37 0.46,-0.68 0.88,-0.91 0.42,-0.24 1.01,-0.35 1.77,-0.35 0.49,0 1.03,0.05 1.63,0.14l-0.26 1.27c-0.37,-0.05 -0.71,-0.08 -1.03,-0.08 -0.53,0 -0.9,0.1 -1.12,0.28 -0.22,0.19 -0.33,0.54 -0.33,1.05l0 0.78 2 0 0 1.12 -1.98 0 0 7.44 -1.74 0z"/>
  <path id="1" class="fil2 str1" d="M90.66 -70.46l0 -7.44 -1.54 0 0 -1.12 1.54 0 0 -0.9c0,-0.58 0.06,-1 0.18,-1.28 0.17,-0.37 0.46,-0.68 0.88,-0.91 0.42,-0.24 1.01,-0.35 1.77,-0.35 0.49,0 1.03,0.05 1.63,0.14l-0.26 1.27c-0.37,-0.05 -0.71,-0.08 -1.03,-0.08 -0.53,0 -0.9,0.1 -1.12,0.28 -0.22,0.19 -0.33,0.54 -0.33,1.05l0 0.78 2 0 0 1.12 -1.98 0 0 7.44 -1.74 0z"/>
  <path class="fil3 str0" d="M173.02 -85.46l16 0c0.55,0 1,0.45 1,1l0 16c0,0.55 -0.45,1 -1,1l-16 0c-0.55,0 -1,-0.45 -1,-1l0 -16c0,-0.55 0.45,-1 1,-1z"/>
  <path class="fil5" d="M179.56 -70.46l0 -7.44 -1.54 0 0 -1.12 1.54 0 0 -0.9c0,-0.58 0.06,-1 0.18,-1.28 0.17,-0.37 0.46,-0.68 0.88,-0.91 0.42,-0.24 1.01,-0.35 1.77,-0.35 0.49,0 1.03,0.05 1.63,0.14l-0.26 1.27c-0.37,-0.05 -0.71,-0.08 -1.03,-0.08 -0.53,0 -0.9,0.1 -1.12,0.28 -0.22,0.19 -0.33,0.54 -0.33,1.05l0 0.78 2 0 0 1.12 -1.98 0 0 7.44 -1.74 0z"/>
  <path id="1" class="fil2 str3" d="M179.56 -70.46l0 -7.44 -1.54 0 0 -1.12 1.54 0 0 -0.9c0,-0.58 0.06,-1 0.18,-1.28 0.17,-0.37 0.46,-0.68 0.88,-0.91 0.42,-0.24 1.01,-0.35 1.77,-0.35 0.49,0 1.03,0.05 1.63,0.14l-0.26 1.27c-0.37,-0.05 -0.71,-0.08 -1.03,-0.08 -0.53,0 -0.9,0.1 -1.12,0.28 -0.22,0.19 -0.33,0.54 -0.33,1.05l0 0.78 2 0 0 1.12 -1.98 0 0 7.44 -1.74 0z"/>
  <path class="fil0 str0" d="M151.01 -85.46l16.01 0c0.55,0 1,0.45 1,1l0 16c0,0.55 -0.45,1 -1,1l-16.01 0c-0.55,0 -1,-0.45 -1,-1l0 -16c0,-0.55 0.45,-1 1,-1z"/>
  <path class="fil1" d="M157.56 -70.46l0 -7.44 -1.55 0 0 -1.12 1.55 0 0 -0.9c0,-0.58 0.06,-1 0.18,-1.28 0.17,-0.37 0.46,-0.68 0.88,-0.91 0.42,-0.24 1.01,-0.35 1.77,-0.35 0.49,0 1.03,0.05 1.63,0.14l-0.27 1.27c-0.36,-0.05 -0.7,-0.08 -1.02,-0.08 -0.53,0 -0.9,0.1 -1.12,0.28 -0.22,0.19 -0.33,0.54 -0.33,1.05l0 0.78 2 0 0 1.12 -1.98 0 0 7.44 -1.74 0z"/>
  <path id="1" class="fil2 str1" d="M157.56 -70.46l0 -7.44 -1.55 0 0 -1.12 1.55 0 0 -0.9c0,-0.58 0.06,-1 0.18,-1.28 0.17,-0.37 0.46,-0.68 0.88,-0.91 0.42,-0.24 1.01,-0.35 1.77,-0.35 0.49,0 1.03,0.05 1.63,0.14l-0.27 1.27c-0.36,-0.05 -0.7,-0.08 -1.02,-0.08 -0.53,0 -0.9,0.1 -1.12,0.28 -0.22,0.19 -0.33,0.54 -0.33,1.05l0 0.78 2 0 0 1.12 -1.98 0 0 7.44 -1.74 0z"/>
  <polygon class="fil5" points="8.12,-71.46 8.12,-75.61 4,-75.61 4,-77.34 8.12,-77.34 8.12,-81.46 9.88,-81.46 9.88,-77.34 14,-77.34 14,-75.61 9.88,-75.61 9.88,-71.46 "/>
  <polygon id="1" class="fil2 str3" points="8.12,-71.46 8.12,-75.61 4,-75.61 4,-77.34 8.12,-77.34 8.12,-81.46 9.88,-81.46 9.88,-77.34 14,-77.34 14,-75.61 9.88,-75.61 9.88,-71.46 "/>
  <polygon class="fil0 str0" points="202.02,-83.46 203.66,-78.1 209.02,-78.11 204.68,-74.81 206.35,-69.46 202.02,-72.78 197.69,-69.46 199.36,-74.81 195.02,-78.11 200.37,-78.1 "/>
  <g id="_614931280">
   <path class="fil0" d="M253.82 -76.93c0.19,-0.19 0.45,-0.58 0.86,-0.61 0.91,-0.07 0.88,-0.01 1.18,0.29l1.47 1.48c0.56,0.58 0.57,1.55 -0.02,2.16l-1.47 1.48c-0.15,0.15 -0.19,0.28 -0.46,0.28 -1.06,0.01 -0.9,0.04 -1.58,-0.64 -0.65,-0.65 -1.65,-1.6 -2.21,-2.21l2.23 -2.23zm-9.06 5.07c-0.7,0 -0.47,0.07 -1.11,-0.57 -0.22,-0.22 -0.42,-0.42 -0.65,-0.65 -0.35,-0.35 -0.96,-0.79 -0.96,-1.62 0,-0.84 0.61,-1.27 0.96,-1.62 0.22,-0.22 0.41,-0.41 0.63,-0.63 0.66,-0.66 0.43,-0.59 1.13,-0.59 0.52,0 0.72,0.32 0.95,0.56 0.3,0.29 2.17,2.12 2.26,2.28 -0.09,0.15 -1.28,1.3 -1.51,1.53 -0.26,0.26 -0.49,0.49 -0.75,0.75 -0.24,0.24 -0.43,0.56 -0.95,0.56zm-3.86 -3.12l0 0.57c0.06,0.15 0.12,0.54 0.21,0.76 0.26,0.64 0.88,1.16 1.39,1.67 0.35,0.35 0.67,0.67 1.02,1.02 0.31,0.32 0.21,0.24 0.79,0.24 0.32,0 0.65,0.02 0.97,-0.05 0.6,-0.15 0.89,-0.5 1.2,-0.81l2.04 -2.03c0.3,-0.3 0.62,-0.76 1.34,-0.72 0.64,0.04 0.98,0.49 1.26,0.77l2.04 2.04c0.93,0.93 1.24,0.83 2.72,0.81 0.25,0 0.23,-0.04 0.36,-0.18 0.73,-0.75 2.04,-1.87 2.41,-2.68 0.2,-0.45 0.16,-0.63 0.25,-0.8l0 -0.66c-0.1,-0.19 -0.09,-0.8 -0.65,-1.41 -0.34,-0.37 -0.66,-0.68 -1.01,-1.03 -0.35,-0.35 -0.67,-0.67 -1.02,-1.02 -0.27,-0.28 -0.28,-0.2 -0.8,-0.2 -1.21,0 -1.4,-0.05 -2.25,0.8l-2.04 2.04c-0.27,0.27 -0.64,0.74 -1.24,0.79 -0.7,0.05 -1.05,-0.4 -1.34,-0.69l-2.03 -2.04c-0.31,-0.31 -0.61,-0.67 -1.21,-0.83 -0.21,-0.05 -1.25,-0.09 -1.5,-0.05 -0.17,0.02 -1.13,1.06 -1.3,1.23 -0.52,0.52 -1.12,1.01 -1.39,1.66 -0.1,0.24 -0.15,0.64 -0.22,0.8z"/>
   <path class="fil0" d="M246.78 -80.1c0.46,-0.41 0.93,-0.92 1.37,-1.37 0.54,-0.54 0.9,-1.05 1.68,-1.08 0.89,-0.04 1.37,0.64 1.74,1.01l1.34 1.36c-0.02,0.02 -0.55,0.36 -0.87,0.66 -0.43,0.4 -2.09,2.15 -2.29,2.26 -0.13,-0.2 -0.53,-0.56 -0.73,-0.75 -0.86,-0.87 -1.28,-1.38 -2.24,-2.09zm3.4 -3.6l-0.57 0c-0.12,0.06 -0.32,0.07 -0.45,0.11 -0.94,0.25 -1.54,1.04 -2.29,1.79l-2.31 2.32c0.85,0.1 1.07,0.01 1.76,0.45 0.4,0.26 2.31,2.24 2.85,2.78 0.73,0.72 0.78,0.46 1.89,-0.66 0.46,-0.45 1.86,-1.93 2.3,-2.2 0.8,-0.47 1.26,-0.3 1.87,-0.38 -0.38,-0.34 -0.78,-0.77 -1.15,-1.15 -0.4,-0.39 -0.77,-0.76 -1.16,-1.16 -0.39,-0.39 -0.79,-0.76 -1.16,-1.16 -0.53,-0.58 -1.3,-0.61 -1.58,-0.74z"/>
   <path class="fil0" d="M246.78 -69.29c0.41,-0.34 0.28,-0.16 0.8,-0.66l2.17 -2.18c0.25,0.12 1.99,2.05 2.73,2.62 0.12,0.09 0.37,0.23 0.43,0.3 -0.42,0.46 -0.91,0.92 -1.36,1.37 -0.38,0.38 -0.85,1.05 -1.76,0.99 -0.41,-0.02 -0.75,-0.2 -0.97,-0.41 -0.4,-0.39 -1.78,-1.82 -2.04,-2.03zm2.84 3.59l0.56 0c0.12,-0.05 0.31,-0.06 0.45,-0.1 0.47,-0.14 0.79,-0.32 1.12,-0.65 0.5,-0.48 3.17,-3.21 3.48,-3.46 -0.32,-0.05 -0.66,0.01 -1.03,-0.06 -0.29,-0.06 -0.58,-0.16 -0.81,-0.31 -0.92,-0.59 -3.15,-3.16 -3.47,-3.24 -0.37,-0.1 -0.58,0.2 -0.72,0.34 -0.58,0.58 -2.39,2.45 -2.85,2.78 -0.5,0.36 -1.02,0.47 -1.78,0.47 0.05,0.16 2.94,2.93 3.45,3.48 0.57,0.62 1.44,0.68 1.6,0.75z"/>
  </g>
  <g id="_614914360">
   <path class="fil0" d="M3 11.21l0 0.58c0.16,0.34 0.03,0.67 0.59,1.41l2.03 2.04c0.31,0.31 0.21,0.24 0.79,0.24 1.17,0 1.35,-0.04 2.17,-0.86 0.35,-0.35 0.67,-0.67 1.02,-1.02 0.35,-0.35 0.67,-0.67 1.02,-1.02 0.3,-0.29 0.63,-0.75 1.35,-0.71 0.63,0.04 0.97,0.49 1.25,0.77l2.04 2.03c0.18,0.18 0.3,0.35 0.52,0.5 0.59,0.39 1.43,0.34 2.2,0.32 0.21,-0.01 0.24,-0.1 0.34,-0.2l1.53 -1.53c0.78,-0.77 0.84,-0.81 1.11,-1.81l0.04 -0.12 0 -0.66 -0.03 -0.09c-0.09,-0.29 -0.03,-0.29 -0.21,-0.7 -0.11,-0.25 -0.25,-0.46 -0.39,-0.63l-2.04 -2.04c-0.26,-0.27 -0.26,-0.2 -0.85,-0.2 -0.66,0 -1.17,-0.06 -1.71,0.34 -0.25,0.17 -1.29,1.25 -1.55,1.51 -0.35,0.35 -0.67,0.67 -1.02,1.02 -0.27,0.27 -0.62,0.73 -1.24,0.76 -0.7,0.04 -1.03,-0.41 -1.32,-0.71l-2.04 -2.04c-0.83,-0.83 -0.99,-0.87 -2.19,-0.87 -0.58,0 -0.48,-0.08 -0.79,0.23l-2.03 2.05c-0.54,0.7 -0.44,1.09 -0.59,1.41z"/>
   <path class="fil0" d="M11.72 20.5l0.56 0c0.12,-0.06 0.31,-0.06 0.46,-0.11 0.39,-0.11 0.87,-0.36 1.13,-0.63l3.46 -3.47c-0.5,-0.08 -1.09,0.09 -1.84,-0.37 -0.65,-0.4 -2.2,-2.06 -2.87,-2.72 -0.52,-0.53 -0.65,-0.85 -1.32,-0.18 -0.19,0.2 -0.36,0.37 -0.56,0.56 -0.42,0.42 -1.92,1.98 -2.28,2.22 -0.53,0.36 -1.02,0.47 -1.79,0.47 0.15,0.22 3.06,3.06 3.47,3.49 0.56,0.61 1.43,0.67 1.58,0.74z"/>
   <path class="fil0" d="M12.29 2.5l-0.58 0c-0.12,0.05 -0.31,0.07 -0.45,0.1 -0.42,0.12 -0.83,0.34 -1.12,0.64 -0.39,0.4 -0.77,0.77 -1.16,1.16l-2.32 2.32c0.81,0.09 1.13,0.01 1.76,0.45 0.48,0.33 2.26,2.18 2.85,2.77 0.73,0.73 0.78,0.47 1.9,-0.65 0.46,-0.46 1.84,-1.92 2.3,-2.2 0.8,-0.48 1.25,-0.3 1.86,-0.38 -0.38,-0.34 -0.77,-0.77 -1.15,-1.15 -0.67,-0.67 -1.72,-1.67 -2.32,-2.32 -0.56,-0.61 -1.41,-0.66 -1.57,-0.74z"/>
   <path class="fil0" d="M13.7 11.5c0.55,0.61 1.55,1.56 2.21,2.21 0.68,0.68 0.51,0.65 1.58,0.64 0.27,0 0.3,-0.13 0.45,-0.28l1.48 -1.48c0.59,-0.61 0.57,-1.58 0.02,-2.16l-1.48 -1.48c-0.3,-0.3 -0.27,-0.36 -1.18,-0.29 -0.4,0.03 -0.67,0.41 -0.86,0.61l-2.22 2.23z"/>
   <path class="fil0" d="M6.44 14.33c0.89,0 0.82,0.01 1.37,-0.55 0.3,-0.29 2.17,-2.12 2.26,-2.28 -0.08,-0.15 -1.27,-1.31 -1.5,-1.53 -0.26,-0.26 -0.49,-0.49 -0.75,-0.76 -0.56,-0.56 -0.51,-0.55 -1.38,-0.55 -0.2,0 -0.46,0.34 -0.69,0.57 -0.22,0.22 -0.42,0.42 -0.65,0.65 -0.35,0.35 -0.96,0.78 -0.96,1.62 0,0.84 0.61,1.27 0.97,1.62l0.95 0.95c0.1,0.11 0.19,0.26 0.38,0.26z"/>
   <path class="fil0" d="M8.88 6.11c0.15,0.11 0.27,0.17 0.42,0.29 0.13,0.1 0.27,0.24 0.38,0.35l2.18 2.18c0.3,-0.15 2.02,-2.11 2.7,-2.6 0.12,-0.09 0.38,-0.24 0.46,-0.31l-1.37 -1.38c-0.37,-0.37 -0.85,-1.06 -1.76,-0.99 -0.75,0.05 -1.14,0.58 -1.65,1.09l-1.36 1.37z"/>
   <path class="fil0" d="M8.88 16.9c0.26,0.22 1.65,1.65 2.05,2.04 0.22,0.21 0.55,0.39 0.96,0.41 0.92,0.06 1.38,-0.61 1.76,-0.99 0.45,-0.45 0.95,-0.91 1.37,-1.38l-0.86 -0.64c-0.43,-0.4 -2.11,-2.18 -2.31,-2.28 -0.1,0.15 -2.32,2.36 -2.55,2.54 -0.15,0.11 -0.28,0.19 -0.42,0.3z"/>
  </g>
 </g>
</svg>
