<?xml version="1.0" encoding="UTF-8"?>
<!DOCTYPE svg PUBLIC "-//W3C//DTD SVG 1.1//EN" "http://www.w3.org/Graphics/SVG/1.1/DTD/svg11.dtd">
<!-- Creator: CorelDRAW 2018 -->
<svg xmlns="http://www.w3.org/2000/svg" xml:space="preserve" width="24px" height="24px" version="1.1" style="shape-rendering:geometricPrecision; text-rendering:geometricPrecision; image-rendering:optimizeQuality; fill-rule:evenodd; clip-rule:evenodd"
viewBox="0 0 24 24"
 xmlns:xlink="http://www.w3.org/1999/xlink">
 <defs>
  <style type="text/css">
   <![CDATA[
    .str0 {stroke:black;stroke-width:2.36;stroke-miterlimit:22.9256}
    .str2 {stroke:white;stroke-width:2.36;stroke-miterlimit:22.9256}
    .str3 {stroke:black;stroke-width:0.9;stroke-miterlimit:22.9256}
    .str1 {stroke:white;stroke-width:0.9;stroke-miterlimit:22.9256}
    .fil3 {fill:none}
    .fil2 {fill:none;fill-rule:nonzero}
    .fil0 {fill:black}
    .fil4 {fill:white}
    .fil5 {fill:black;fill-rule:nonzero}
    .fil1 {fill:white;fill-rule:nonzero}
   ]]>
  </style>
 </defs>
 <g id="Layer_x0020_1">
  <metadata id="CorelCorpID_0Corel-Layer"/>
  <circle class="fil0 str0" cx="-13.74" cy="-76.46" r="9"/>
  <polygon class="fil1" points="-14.62,-71.46 -14.62,-75.61 -18.74,-75.61 -18.74,-77.34 -14.62,-77.34 -14.62,-81.46 -12.86,-81.46 -12.86,-77.34 -8.74,-77.34 -8.74,-75.61 -12.86,-75.61 -12.86,-71.46 "/>
  <polygon id="1" class="fil2 str1" points="-14.62,-71.46 -14.62,-75.61 -18.74,-75.61 -18.74,-77.34 -14.62,-77.34 -14.62,-81.46 -12.86,-81.46 -12.86,-77.34 -8.74,-77.34 -8.74,-75.61 -12.86,-75.61 -12.86,-71.46 "/>
  <circle class="fil3 str0" cx="9" cy="-76.46" r="9"/>
  <path class="fil3 str0" d="M43.1 -84.42l11.8 0c0.06,0 0.1,0.05 0.1,0.1l0 15.68c0,0.04 -0.02,0.07 -0.06,0.09 -0.03,0.02 -0.07,0.01 -0.1,-0.02l-5.03 -4.64c-0.03,-0.03 -0.08,-0.03 -0.12,0l-6.53 4.68c-0.03,0.03 -0.07,0.03 -0.1,0.01 -0.04,-0.02 -0.06,-0.05 -0.06,-0.09 0,-5.23 0,-10.47 0,-15.71 0,-0.05 0.05,-0.1 0.1,-0.1z"/>
  <path class="fil0 str0" d="M24.29 -84.42l11.8 0c0.06,0 0.1,0.05 0.1,0.1l0 15.68c0,0.04 -0.02,0.07 -0.06,0.09 -0.04,0.02 -0.08,0.01 -0.11,-0.02l-5.02 -4.64c-0.03,-0.03 -0.09,-0.03 -0.12,0l-6.53 4.68c-0.03,0.03 -0.07,0.03 -0.11,0.01 -0.03,-0.02 -0.05,-0.05 -0.05,-0.09 0,-5.23 0,-10.47 0,-15.71 0,-0.05 0.05,-0.1 0.1,-0.1z"/>
  <polygon class="fil3 str0" points="12,5.5 13.65,10.86 19,10.85 14.66,14.15 16.33,19.5 12,16.18 7.67,19.5 9.34,14.15 5,10.85 10.35,10.86 "/>
  <circle class="fil3 str0" cx="136.12" cy="-76.46" r="9"/>
  <polygon class="fil0 str0" points="139.12,-76.46 136.12,-74.96 133.12,-73.46 133.12,-76.46 133.12,-79.46 136.12,-77.96 "/>
  <circle class="fil0 str0" cx="114.12" cy="-76.46" r="9"/>
  <polygon class="fil4 str2" points="117.12,-76.46 114.12,-74.96 111.12,-73.46 111.12,-76.46 111.12,-79.46 114.12,-77.96 "/>
  <circle class="fil3 str0" cx="69.29" cy="-76.46" r="9"/>
  <path class="fil5" d="M67.84 -70.46l0 -7.44 -1.55 0 0 -1.12 1.55 0 0 -0.9c0,-0.58 0.06,-1 0.18,-1.28 0.17,-0.37 0.46,-0.68 0.88,-0.91 0.42,-0.24 1.01,-0.35 1.77,-0.35 0.49,0 1.03,0.05 1.62,0.14l-0.26 1.27c-0.36,-0.05 -0.7,-0.08 -1.02,-0.08 -0.53,0 -0.9,0.1 -1.12,0.28 -0.22,0.19 -0.33,0.54 -0.33,1.05l0 0.78 2 0 0 1.12 -1.98 0 0 7.44 -1.74 0z"/>
  <path id="1" class="fil2 str3" d="M67.84 -70.46l0 -7.44 -1.55 0 0 -1.12 1.55 0 0 -0.9c0,-0.58 0.06,-1 0.18,-1.28 0.17,-0.37 0.46,-0.68 0.88,-0.91 0.42,-0.24 1.01,-0.35 1.77,-0.35 0.49,0 1.03,0.05 1.62,0.14l-0.26 1.27c-0.36,-0.05 -0.7,-0.08 -1.02,-0.08 -0.53,0 -0.9,0.1 -1.12,0.28 -0.22,0.19 -0.33,0.54 -0.33,1.05l0 0.78 2 0 0 1.12 -1.98 0 0 7.44 -1.74 0z"/>
  <circle class="fil0 str0" cx="92.12" cy="-76.46" r="9"/>
  <path class="fil1" d="M90.66 -70.46l0 -7.44 -1.54 0 0 -1.12 1.54 0 0 -0.9c0,-0.58 0.06,-1 0.18,-1.28 0.17,-0.37 0.46,-0.68 0.88,-0.91 0.42,-0.24 1.01,-0.35 1.77,-0.35 0.49,0 1.03,0.05 1.63,0.14l-0.26 1.27c-0.37,-0.05 -0.71,-0.08 -1.03,-0.08 -0.53,0 -0.9,0.1 -1.12,0.28 -0.22,0.19 -0.33,0.54 -0.33,1.05l0 0.78 2 0 0 1.12 -1.98 0 0 7.44 -1.74 0z"/>
  <path id="1" class="fil2 str1" d="M90.66 -70.46l0 -7.44 -1.54 0 0 -1.12 1.54 0 0 -0.9c0,-0.58 0.06,-1 0.18,-1.28 0.17,-0.37 0.46,-0.68 0.88,-0.91 0.42,-0.24 1.01,-0.35 1.77,-0.35 0.49,0 1.03,0.05 1.63,0.14l-0.26 1.27c-0.37,-0.05 -0.71,-0.08 -1.03,-0.08 -0.53,0 -0.9,0.1 -1.12,0.28 -0.22,0.19 -0.33,0.54 -0.33,1.05l0 0.78 2 0 0 1.12 -1.98 0 0 7.44 -1.74 0z"/>
  <path class="fil3 str0" d="M173.02 -85.46l16 0c0.55,0 1,0.45 1,1l0 16c0,0.55 -0.45,1 -1,1l-16 0c-0.55,0 -1,-0.45 -1,-1l0 -16c0,-0.55 0.45,-1 1,-1z"/>
  <path class="fil5" d="M179.56 -70.46l0 -7.44 -1.54 0 0 -1.12 1.54 0 0 -0.9c0,-0.58 0.06,-1 0.18,-1.28 0.17,-0.37 0.46,-0.68 0.88,-0.91 0.42,-0.24 1.01,-0.35 1.77,-0.35 0.49,0 1.03,0.05 1.63,0.14l-0.26 1.27c-0.37,-0.05 -0.71,-0.08 -1.03,-0.08 -0.53,0 -0.9,0.1 -1.12,0.28 -0.22,0.19 -0.33,0.54 -0.33,1.05l0 0.78 2 0 0 1.12 -1.98 0 0 7.44 -1.74 0z"/>
  <path id="1" class="fil2 str3" d="M179.56 -70.46l0 -7.44 -1.54 0 0 -1.12 1.54 0 0 -0.9c0,-0.58 0.06,-1 0.18,-1.28 0.17,-0.37 0.46,-0.68 0.88,-0.91 0.42,-0.24 1.01,-0.35 1.77,-0.35 0.49,0 1.03,0.05 1.63,0.14l-0.26 1.27c-0.37,-0.05 -0.71,-0.08 -1.03,-0.08 -0.53,0 -0.9,0.1 -1.12,0.28 -0.22,0.19 -0.33,0.54 -0.33,1.05l0 0.78 2 0 0 1.12 -1.98 0 0 7.44 -1.74 0z"/>
  <path class="fil0 str0" d="M151.01 -85.46l16.01 0c0.55,0 1,0.45 1,1l0 16c0,0.55 -0.45,1 -1,1l-16.01 0c-0.55,0 -1,-0.45 -1,-1l0 -16c0,-0.55 0.45,-1 1,-1z"/>
  <path class="fil1" d="M157.56 -70.46l0 -7.44 -1.55 0 0 -1.12 1.55 0 0 -0.9c0,-0.58 0.06,-1 0.18,-1.28 0.17,-0.37 0.46,-0.68 0.88,-0.91 0.42,-0.24 1.01,-0.35 1.77,-0.35 0.49,0 1.03,0.05 1.63,0.14l-0.27 1.27c-0.36,-0.05 -0.7,-0.08 -1.02,-0.08 -0.53,0 -0.9,0.1 -1.12,0.28 -0.22,0.19 -0.33,0.54 -0.33,1.05l0 0.78 2 0 0 1.12 -1.98 0 0 7.44 -1.74 0z"/>
  <path id="1" class="fil2 str1" d="M157.56 -70.46l0 -7.44 -1.55 0 0 -1.12 1.55 0 0 -0.9c0,-0.58 0.06,-1 0.18,-1.28 0.17,-0.37 0.46,-0.68 0.88,-0.91 0.42,-0.24 1.01,-0.35 1.77,-0.35 0.49,0 1.03,0.05 1.63,0.14l-0.27 1.27c-0.36,-0.05 -0.7,-0.08 -1.02,-0.08 -0.53,0 -0.9,0.1 -1.12,0.28 -0.22,0.19 -0.33,0.54 -0.33,1.05l0 0.78 2 0 0 1.12 -1.98 0 0 7.44 -1.74 0z"/>
  <polygon class="fil5" points="8.12,-71.46 8.12,-75.61 4,-75.61 4,-77.34 8.12,-77.34 8.12,-81.46 9.88,-81.46 9.88,-77.34 14,-77.34 14,-75.61 9.88,-75.61 9.88,-71.46 "/>
  <polygon id="1" class="fil2 str3" points="8.12,-71.46 8.12,-75.61 4,-75.61 4,-77.34 8.12,-77.34 8.12,-81.46 9.88,-81.46 9.88,-77.34 14,-77.34 14,-75.61 9.88,-75.61 9.88,-71.46 "/>
  <polygon class="fil0 str0" points="202.02,-83.75 203.66,-78.39 209.02,-78.4 204.68,-75.1 206.35,-69.75 202.02,-73.07 197.69,-69.75 199.36,-75.1 195.02,-78.4 200.37,-78.39 "/>
 </g>
</svg>
